<?xml version="1.0" encoding="utf-8" standalone="no"?>
<!DOCTYPE svg PUBLIC "-//W3C//DTD SVG 1.1//EN"
  "http://www.w3.org/Graphics/SVG/1.1/DTD/svg11.dtd">
<svg xmlns:xlink="http://www.w3.org/1999/xlink" width="432pt" height="288pt" viewBox="0 0 432 288" xmlns="http://www.w3.org/2000/svg" version="1.1">
 <metadata>
  <rdf:RDF xmlns:dc="http://purl.org/dc/elements/1.1/" xmlns:cc="http://creativecommons.org/ns#" xmlns:rdf="http://www.w3.org/1999/02/22-rdf-syntax-ns#">
   <cc:Work>
    <dc:type rdf:resource="http://purl.org/dc/dcmitype/StillImage"/>
    <dc:date>2024-02-14T15:24:27.016503</dc:date>
    <dc:format>image/svg+xml</dc:format>
    <dc:creator>
     <cc:Agent>
      <dc:title>Matplotlib v3.7.1, https://matplotlib.org/</dc:title>
     </cc:Agent>
    </dc:creator>
   </cc:Work>
  </rdf:RDF>
 </metadata>
 <defs>
  <style type="text/css">*{stroke-linejoin: round; stroke-linecap: butt}</style>
 </defs>
 <g id="figure_1">
  <g id="patch_1">
   <path d="M 0 288 
L 432 288 
L 432 0 
L 0 0 
L 0 288 
z
" style="fill: none"/>
  </g>
  <g id="axes_1">
   <g id="patch_2">
    <path d="M 54 210.24 
L 321.84 210.24 
L 321.84 76.32 
L 54 76.32 
z
" style="fill: #ffffff"/>
   </g>
   <g id="line2d_1">
    <path d="M 87.48 210.24 
L 54 210.24 
M 120.96 210.24 
L 87.48 210.24 
M 154.44 210.24 
L 120.96 210.24 
M 187.92 210.24 
L 154.44 210.24 
M 221.4 210.24 
L 187.92 210.24 
M 254.88 210.24 
L 221.4 210.24 
M 288.36 210.24 
L 254.88 210.24 
M 321.84 210.24 
L 288.36 210.24 
M 54 176.76 
L 54 210.24 
M 87.48 176.76 
L 54 210.24 
M 87.48 176.76 
L 87.48 210.24 
M 87.48 176.76 
L 54 176.76 
M 120.96 176.76 
L 87.48 210.24 
M 120.96 176.76 
L 120.96 210.24 
M 120.96 176.76 
L 87.48 176.76 
M 154.44 176.76 
L 120.96 210.24 
M 154.44 176.76 
L 154.44 210.24 
M 154.44 176.76 
L 120.96 176.76 
M 187.92 176.76 
L 154.44 210.24 
M 187.92 176.76 
L 187.92 210.24 
M 187.92 176.76 
L 154.44 176.76 
M 221.4 176.76 
L 187.92 210.24 
M 221.4 176.76 
L 221.4 210.24 
M 221.4 176.76 
L 187.92 176.76 
M 254.88 176.76 
L 221.4 210.24 
M 254.88 176.76 
L 254.88 210.24 
M 254.88 176.76 
L 221.4 176.76 
M 288.36 176.76 
L 254.88 210.24 
M 288.36 176.76 
L 288.36 210.24 
M 288.36 176.76 
L 254.88 176.76 
M 321.84 176.76 
L 288.36 210.24 
M 321.84 176.76 
L 321.84 210.24 
M 321.84 176.76 
L 288.36 176.76 
M 54 143.28 
L 54 176.76 
M 87.48 143.28 
L 54 176.76 
M 87.48 143.28 
L 87.48 176.76 
M 87.48 143.28 
L 54 143.28 
M 120.96 143.28 
L 87.48 176.76 
M 120.96 143.28 
L 120.96 176.76 
M 120.96 143.28 
L 87.48 143.28 
M 154.44 143.28 
L 120.96 176.76 
M 154.44 143.28 
L 154.44 176.76 
M 154.44 143.28 
L 120.96 143.28 
M 187.92 143.28 
L 154.44 176.76 
M 187.92 143.28 
L 187.92 176.76 
M 187.92 143.28 
L 154.44 143.28 
M 221.4 143.28 
L 187.92 176.76 
M 221.4 143.28 
L 221.4 176.76 
M 221.4 143.28 
L 187.92 143.28 
M 254.88 143.28 
L 221.4 176.76 
M 254.88 143.28 
L 254.88 176.76 
M 254.88 143.28 
L 221.4 143.28 
M 288.36 143.28 
L 254.88 176.76 
M 288.36 143.28 
L 288.36 176.76 
M 288.36 143.28 
L 254.88 143.28 
M 321.84 143.28 
L 288.36 176.76 
M 321.84 143.28 
L 321.84 176.76 
M 321.84 143.28 
L 288.36 143.28 
M 54 109.8 
L 54 143.28 
M 87.48 109.8 
L 54 143.28 
M 87.48 109.8 
L 87.48 143.28 
M 87.48 109.8 
L 54 109.8 
M 120.96 109.8 
L 87.48 143.28 
M 120.96 109.8 
L 120.96 143.28 
M 120.96 109.8 
L 87.48 109.8 
M 154.44 109.8 
L 120.96 143.28 
M 154.44 109.8 
L 154.44 143.28 
M 154.44 109.8 
L 120.96 109.8 
M 187.92 109.8 
L 154.44 143.28 
M 187.92 109.8 
L 187.92 143.28 
M 187.92 109.8 
L 154.44 109.8 
M 221.4 109.8 
L 187.92 143.28 
M 221.4 109.8 
L 221.4 143.28 
M 221.4 109.8 
L 187.92 109.8 
M 254.88 109.8 
L 221.4 143.28 
M 254.88 109.8 
L 254.88 143.28 
M 254.88 109.8 
L 221.4 109.8 
M 288.36 109.8 
L 254.88 143.28 
M 288.36 109.8 
L 288.36 143.28 
M 288.36 109.8 
L 254.88 109.8 
M 321.84 109.8 
L 288.36 143.28 
M 321.84 109.8 
L 321.84 143.28 
M 321.84 109.8 
L 288.36 109.8 
M 54 76.32 
L 54 109.8 
M 87.48 76.32 
L 54 109.8 
M 87.48 76.32 
L 87.48 109.8 
M 87.48 76.32 
L 54 76.32 
M 120.96 76.32 
L 87.48 109.8 
M 120.96 76.32 
L 120.96 109.8 
M 120.96 76.32 
L 87.48 76.32 
M 154.44 76.32 
L 120.96 109.8 
M 154.44 76.32 
L 154.44 109.8 
M 154.44 76.32 
L 120.96 76.32 
M 187.92 76.32 
L 154.44 109.8 
M 187.92 76.32 
L 187.92 109.8 
M 187.92 76.32 
L 154.44 76.32 
M 221.4 76.32 
L 187.92 109.8 
M 221.4 76.32 
L 221.4 109.8 
M 221.4 76.32 
L 187.92 76.32 
M 254.88 76.32 
L 221.4 109.8 
M 254.88 76.32 
L 254.88 109.8 
M 254.88 76.32 
L 221.4 76.32 
M 288.36 76.32 
L 254.88 109.8 
M 288.36 76.32 
L 288.36 109.8 
M 288.36 76.32 
L 254.88 76.32 
M 321.84 76.32 
L 288.36 109.8 
M 321.84 76.32 
L 321.84 109.8 
M 321.84 76.32 
L 288.36 76.32 
L 288.36 76.32 
" clip-path="url(#pa82066883a)" style="fill: none; stroke: #808080; stroke-width: 1.5; stroke-linecap: square"/>
   </g>
   <g id="PathCollection_1">
    <path d="M 56.624624 210.24 
L 56.481952 207.758048 
L 56.481952 176.76 
L 56.379677 174.380323 
L 56.379677 143.28 
L 56.294668 140.985332 
L 56.294668 109.8 
L 56.313295 107.486705 
L 56.313295 76.32 
L 54 76.32 
L 54 109.8 
L 54 143.28 
L 54 176.76 
L 54 210.24 
M 319.637747 76.32 
L 319.532597 78.627403 
L 319.532597 109.8 
L 319.458228 112.181772 
L 319.458228 143.28 
L 319.35402 145.76598 
L 319.35402 176.76 
L 319.215376 179.384624 
L 319.215376 210.24 
L 321.84 210.24 
L 321.84 176.76 
L 321.84 143.28 
L 321.84 109.8 
L 321.84 76.32 
" clip-path="url(#pa82066883a)" style="fill: #450559"/>
   </g>
   <g id="PathCollection_2">
    <path d="M 59.249247 210.24 
L 58.963905 205.276095 
L 58.963905 176.76 
L 58.759355 172.000645 
L 58.759355 143.28 
L 58.589337 138.690663 
L 58.589337 109.8 
L 58.62659 105.17341 
L 58.62659 76.32 
L 56.313295 76.32 
L 56.313295 107.486705 
L 56.294668 109.8 
L 56.294668 140.985332 
L 56.379677 143.28 
L 56.379677 174.380323 
L 56.481952 176.76 
L 56.481952 207.758048 
L 56.624624 210.24 
M 319.215376 210.24 
L 319.215376 179.384624 
L 319.35402 176.76 
L 319.35402 145.76598 
L 319.458228 143.28 
L 319.458228 112.181772 
L 319.532597 109.8 
L 319.532597 78.627403 
L 319.637747 76.32 
L 317.435494 76.32 
L 317.225194 80.934806 
L 317.225194 109.8 
L 317.076456 114.563544 
L 317.076456 143.28 
L 316.868039 148.251961 
L 316.868039 176.76 
L 316.590753 182.009247 
L 316.590753 210.24 
" clip-path="url(#pa82066883a)" style="fill: #470e61"/>
   </g>
   <g id="PathCollection_3">
    <path d="M 61.873871 210.24 
L 61.445857 202.794143 
L 61.445857 176.76 
L 61.139032 169.620968 
L 61.139032 143.28 
L 60.884005 136.395995 
L 60.884005 109.8 
L 60.939885 102.860115 
L 60.939885 76.32 
L 58.62659 76.32 
L 58.62659 105.17341 
L 58.589337 109.8 
L 58.589337 138.690663 
L 58.759355 143.28 
L 58.759355 172.000645 
L 58.963905 176.76 
L 58.963905 205.276095 
L 59.249247 210.24 
M 316.590753 210.24 
L 316.590753 182.009247 
L 316.868039 176.76 
L 316.868039 148.251961 
L 317.076456 143.28 
L 317.076456 114.563544 
L 317.225194 109.8 
L 317.225194 80.934806 
L 317.435494 76.32 
L 315.233241 76.32 
L 314.917791 83.242209 
L 314.917791 109.8 
L 314.694684 116.945316 
L 314.694684 143.28 
L 314.382059 150.737941 
L 314.382059 176.76 
L 313.966129 184.633871 
L 313.966129 210.24 
" clip-path="url(#pa82066883a)" style="fill: #48186a"/>
   </g>
   <g id="PathCollection_4">
    <path d="M 64.498495 210.24 
L 63.92781 200.31219 
L 63.92781 176.76 
L 63.51871 167.24129 
L 63.51871 143.28 
L 63.178673 134.101327 
L 63.178673 109.8 
L 63.25318 100.54682 
L 63.25318 76.32 
L 60.939885 76.32 
L 60.939885 102.860115 
L 60.884005 109.8 
L 60.884005 136.395995 
L 61.139032 143.28 
L 61.139032 169.620968 
L 61.445857 176.76 
L 61.445857 202.794143 
L 61.873871 210.24 
M 313.966129 210.24 
L 313.966129 184.633871 
L 314.382059 176.76 
L 314.382059 150.737941 
L 314.694684 143.28 
L 314.694684 116.945316 
L 314.917791 109.8 
L 314.917791 83.242209 
L 315.233241 76.32 
L 313.030988 76.32 
L 312.610388 85.549612 
L 312.610388 109.8 
L 312.312912 119.327088 
L 312.312912 143.28 
L 311.896078 153.223922 
L 311.896078 176.76 
L 311.341505 187.258495 
L 311.341505 210.24 
" clip-path="url(#pa82066883a)" style="fill: #482071"/>
   </g>
   <g id="PathCollection_5">
    <path d="M 67.123118 210.24 
L 66.409762 197.830238 
L 66.409762 176.76 
L 65.898387 164.861613 
L 65.898387 143.28 
L 65.473342 131.806658 
L 65.473342 109.8 
L 65.566476 98.233524 
L 65.566476 76.32 
L 63.25318 76.32 
L 63.25318 100.54682 
L 63.178673 109.8 
L 63.178673 134.101327 
L 63.51871 143.28 
L 63.51871 167.24129 
L 63.92781 176.76 
L 63.92781 200.31219 
L 64.498495 210.24 
M 311.341505 210.24 
L 311.341505 187.258495 
L 311.896078 176.76 
L 311.896078 153.223922 
L 312.312912 143.28 
L 312.312912 119.327088 
L 312.610388 109.8 
L 312.610388 85.549612 
L 313.030988 76.32 
L 310.828736 76.32 
L 310.302985 87.857015 
L 310.302985 109.8 
L 309.93114 121.70886 
L 309.93114 143.28 
L 309.410098 155.709902 
L 309.410098 176.76 
L 308.716882 189.883118 
L 308.716882 210.24 
" clip-path="url(#pa82066883a)" style="fill: #482979"/>
   </g>
   <g id="PathCollection_6">
    <path d="M 69.747742 210.24 
L 68.891715 195.348285 
L 68.891715 176.76 
L 68.278065 162.481935 
L 68.278065 143.28 
L 67.76801 129.51199 
L 67.76801 109.8 
L 67.879771 95.920229 
L 67.879771 76.32 
L 65.566476 76.32 
L 65.566476 98.233524 
L 65.473342 109.8 
L 65.473342 131.806658 
L 65.898387 143.28 
L 65.898387 164.861613 
L 66.409762 176.76 
L 66.409762 197.830238 
L 67.123118 210.24 
M 308.716882 210.24 
L 308.716882 189.883118 
L 309.410098 176.76 
L 309.410098 155.709902 
L 309.93114 143.28 
L 309.93114 121.70886 
L 310.302985 109.8 
L 310.302985 87.857015 
L 310.828736 76.32 
L 308.626483 76.32 
L 307.995582 90.164418 
L 307.995582 109.8 
L 307.549368 124.090632 
L 307.549368 143.28 
L 306.924117 158.195883 
L 306.924117 176.76 
L 306.092258 192.507742 
L 306.092258 210.24 
" clip-path="url(#pa82066883a)" style="fill: #46327e"/>
   </g>
   <g id="PathCollection_7">
    <path d="M 72.372366 210.24 
L 71.373667 192.866333 
L 71.373667 176.76 
L 70.657742 160.102258 
L 70.657742 143.28 
L 70.062678 127.217322 
L 70.062678 109.8 
L 70.193066 93.606934 
L 70.193066 76.32 
L 67.879771 76.32 
L 67.879771 95.920229 
L 67.76801 109.8 
L 67.76801 129.51199 
L 68.278065 143.28 
L 68.278065 162.481935 
L 68.891715 176.76 
L 68.891715 195.348285 
L 69.747742 210.24 
M 306.092258 210.24 
L 306.092258 192.507742 
L 306.924117 176.76 
L 306.924117 158.195883 
L 307.549368 143.28 
L 307.549368 124.090632 
L 307.995582 109.8 
L 307.995582 90.164418 
L 308.626483 76.32 
L 306.42423 76.32 
L 305.688179 92.471821 
L 305.688179 109.8 
L 305.167596 126.472404 
L 305.167596 143.28 
L 304.438137 160.681863 
L 304.438137 176.76 
L 303.467634 195.132366 
L 303.467634 210.24 
" clip-path="url(#pa82066883a)" style="fill: #443983"/>
   </g>
   <g id="PathCollection_8">
    <path d="M 74.996989 210.24 
L 73.85562 190.38438 
L 73.85562 176.76 
L 73.03742 157.72258 
L 73.03742 143.28 
L 72.357347 124.922653 
L 72.357347 109.8 
L 72.506361 91.293639 
L 72.506361 76.32 
L 70.193066 76.32 
L 70.193066 93.606934 
L 70.062678 109.8 
L 70.062678 127.217322 
L 70.657742 143.28 
L 70.657742 160.102258 
L 71.373667 176.76 
L 71.373667 192.866333 
L 72.372366 210.24 
M 303.467634 210.24 
L 303.467634 195.132366 
L 304.438137 176.76 
L 304.438137 160.681863 
L 305.167596 143.28 
L 305.167596 126.472404 
L 305.688179 109.8 
L 305.688179 92.471821 
L 306.42423 76.32 
L 304.221977 76.32 
L 303.380776 94.779224 
L 303.380776 109.8 
L 302.785825 128.854175 
L 302.785825 143.28 
L 301.952157 163.167843 
L 301.952157 176.76 
L 300.843011 197.756989 
L 300.843011 210.24 
" clip-path="url(#pa82066883a)" style="fill: #424186"/>
   </g>
   <g id="PathCollection_9">
    <path d="M 77.621613 210.24 
L 76.337572 187.902428 
L 76.337572 176.76 
L 75.417097 155.342903 
L 75.417097 143.28 
L 74.652015 122.627985 
L 74.652015 109.8 
L 74.819656 88.980344 
L 74.819656 76.32 
L 72.506361 76.32 
L 72.506361 91.293639 
L 72.357347 109.8 
L 72.357347 124.922653 
L 73.03742 143.28 
L 73.03742 157.72258 
L 73.85562 176.76 
L 73.85562 190.38438 
L 74.996989 210.24 
M 300.843011 210.24 
L 300.843011 197.756989 
L 301.952157 176.76 
L 301.952157 163.167843 
L 302.785825 143.28 
L 302.785825 128.854175 
L 303.380776 109.8 
L 303.380776 94.779224 
L 304.221977 76.32 
L 302.019724 76.32 
L 301.073373 97.086627 
L 301.073373 109.8 
L 300.404053 131.235947 
L 300.404053 143.28 
L 299.466176 165.653824 
L 299.466176 176.76 
L 298.218387 200.381613 
L 298.218387 210.24 
" clip-path="url(#pa82066883a)" style="fill: #3f4889"/>
   </g>
   <g id="PathCollection_10">
    <path d="M 80.246237 210.24 
L 78.819524 185.420476 
L 78.819524 176.76 
L 77.796775 152.963225 
L 77.796775 143.28 
L 76.946683 120.333317 
L 76.946683 109.8 
L 77.132951 86.667049 
L 77.132951 76.32 
L 74.819656 76.32 
L 74.819656 88.980344 
L 74.652015 109.8 
L 74.652015 122.627985 
L 75.417097 143.28 
L 75.417097 155.342903 
L 76.337572 176.76 
L 76.337572 187.902428 
L 77.621613 210.24 
M 298.218387 210.24 
L 298.218387 200.381613 
L 299.466176 176.76 
L 299.466176 165.653824 
L 300.404053 143.28 
L 300.404053 131.235947 
L 301.073373 109.8 
L 301.073373 97.086627 
L 302.019724 76.32 
L 299.817471 76.32 
L 298.76597 99.39403 
L 298.76597 109.8 
L 298.022281 133.617719 
L 298.022281 143.28 
L 296.980196 168.139804 
L 296.980196 176.76 
L 295.593763 203.006237 
L 295.593763 210.24 
" clip-path="url(#pa82066883a)" style="fill: #3c508b"/>
   </g>
   <g id="PathCollection_11">
    <path d="M 82.870861 210.24 
L 81.301477 182.938523 
L 81.301477 176.76 
L 80.176452 150.583548 
L 80.176452 143.28 
L 79.241352 118.038648 
L 79.241352 109.8 
L 79.446246 84.353754 
L 79.446246 76.32 
L 77.132951 76.32 
L 77.132951 86.667049 
L 76.946683 109.8 
L 76.946683 120.333317 
L 77.796775 143.28 
L 77.796775 152.963225 
L 78.819524 176.76 
L 78.819524 185.420476 
L 80.246237 210.24 
M 295.593763 210.24 
L 295.593763 203.006237 
L 296.980196 176.76 
L 296.980196 168.139804 
L 298.022281 143.28 
L 298.022281 133.617719 
L 298.76597 109.8 
L 298.76597 99.39403 
L 299.817471 76.32 
L 297.615218 76.32 
L 296.458567 101.701433 
L 296.458567 109.8 
L 295.640509 135.999491 
L 295.640509 143.28 
L 294.494215 170.625785 
L 294.494215 176.76 
L 292.969139 205.630861 
L 292.969139 210.24 
" clip-path="url(#pa82066883a)" style="fill: #39568c"/>
   </g>
   <g id="PathCollection_12">
    <path d="M 85.495484 210.24 
L 83.783429 180.456571 
L 83.783429 176.76 
L 82.55613 148.20387 
L 82.55613 143.28 
L 81.53602 115.74398 
L 81.53602 109.8 
L 81.759541 82.040459 
L 81.759541 76.32 
L 79.446246 76.32 
L 79.446246 84.353754 
L 79.241352 109.8 
L 79.241352 118.038648 
L 80.176452 143.28 
L 80.176452 150.583548 
L 81.301477 176.76 
L 81.301477 182.938523 
L 82.870861 210.24 
M 292.969139 210.24 
L 292.969139 205.630861 
L 294.494215 176.76 
L 294.494215 170.625785 
L 295.640509 143.28 
L 295.640509 135.999491 
L 296.458567 109.8 
L 296.458567 101.701433 
L 297.615218 76.32 
L 295.412965 76.32 
L 294.151164 104.008836 
L 294.151164 109.8 
L 293.258737 138.381263 
L 293.258737 143.28 
L 292.008235 173.111765 
L 292.008235 176.76 
L 290.344516 208.255484 
L 290.344516 210.24 
" clip-path="url(#pa82066883a)" style="fill: #355e8d"/>
   </g>
   <g id="PathCollection_13">
    <path d="M 88.235059 210.24 
L 88.151405 209.568595 
L 87.48 199.104488 
L 86.265382 177.974618 
L 86.265382 176.76 
L 84.935807 145.824193 
L 84.935807 143.28 
L 83.830688 113.449312 
L 83.830688 109.8 
L 84.072836 79.727164 
L 84.072836 76.32 
L 81.759541 76.32 
L 81.759541 82.040459 
L 81.53602 109.8 
L 81.53602 115.74398 
L 82.55613 143.28 
L 82.55613 148.20387 
L 83.783429 176.76 
L 83.783429 180.456571 
L 85.495484 210.24 
L 87.48 210.24 
M 290.344516 210.24 
L 290.344516 208.255484 
L 292.008235 176.76 
L 292.008235 173.111765 
L 293.258737 143.28 
L 293.258737 138.381263 
L 294.151164 109.8 
L 294.151164 104.008836 
L 295.412965 76.32 
L 293.210712 76.32 
L 291.843761 106.316239 
L 291.843761 109.8 
L 290.876965 140.763035 
L 290.876965 143.28 
L 289.522254 175.597746 
L 289.522254 176.76 
L 288.36 198.762372 
L 287.604941 210.24 
L 288.36 210.24 
" clip-path="url(#pa82066883a)" style="fill: #32658e"/>
   </g>
   <g id="PathCollection_14">
    <path d="M 91.331013 210.24 
L 90.904356 206.815644 
L 88.975906 176.76 
L 88.847295 175.392705 
L 87.48 147.27236 
L 87.315485 143.444515 
L 87.315485 143.28 
L 86.125357 111.154643 
L 86.125357 109.8 
L 86.386131 77.413869 
L 86.386131 76.32 
L 84.072836 76.32 
L 84.072836 79.727164 
L 83.830688 109.8 
L 83.830688 113.449312 
L 84.935807 143.28 
L 84.935807 145.824193 
L 86.265382 176.76 
L 86.265382 177.974618 
L 87.48 199.104488 
L 88.151405 209.568595 
L 88.235059 210.24 
M 287.604941 210.24 
L 288.36 198.762372 
L 289.522254 176.76 
L 289.522254 175.597746 
L 290.876965 143.28 
L 290.876965 140.763035 
L 291.843761 109.8 
L 291.843761 106.316239 
L 293.210712 76.32 
L 291.008459 76.32 
L 289.536357 108.623643 
L 289.536357 109.8 
L 288.495193 143.144807 
L 288.495193 143.28 
L 288.36 146.505141 
L 286.799518 176.76 
L 286.595392 178.524608 
L 284.508987 210.24 
" clip-path="url(#pa82066883a)" style="fill: #2f6b8e"/>
   </g>
   <g id="PathCollection_15">
    <path d="M 94.426968 210.24 
L 93.657307 204.062693 
L 91.905493 176.76 
L 91.52501 172.71499 
L 90.093793 143.28 
L 89.902955 140.857045 
L 88.591328 109.8 
L 88.584827 108.695173 
L 88.888343 76.32 
L 87.48 76.32 
L 86.386131 76.32 
L 86.386131 77.413869 
L 86.125357 109.8 
L 86.125357 111.154643 
L 87.315485 143.28 
L 87.315485 143.444515 
L 87.48 147.27236 
L 88.847295 175.392705 
L 88.975906 176.76 
L 90.904356 206.815644 
L 91.331013 210.24 
M 284.508987 210.24 
L 286.595392 178.524608 
L 286.799518 176.76 
L 288.36 146.505141 
L 288.495193 143.28 
L 288.495193 143.144807 
L 289.536357 109.8 
L 289.536357 108.623643 
L 291.008459 76.32 
L 288.806207 76.32 
L 288.36 86.111508 
L 287.027458 109.8 
L 286.929085 111.230915 
L 285.711175 143.28 
L 285.445405 146.194595 
L 283.868905 176.76 
L 283.281427 181.838573 
L 281.413032 210.24 
" clip-path="url(#pa82066883a)" style="fill: #2c718e"/>
   </g>
   <g id="PathCollection_16">
    <path d="M 97.522923 210.24 
L 96.410258 201.309742 
L 94.835081 176.76 
L 94.202725 170.037275 
L 92.901707 143.28 
L 92.505857 138.254143 
L 91.304158 109.8 
L 91.281788 105.998212 
L 91.560021 76.32 
L 88.888343 76.32 
L 88.584827 108.695173 
L 88.591328 109.8 
L 89.902955 140.857045 
L 90.093793 143.28 
L 91.52501 172.71499 
L 91.905493 176.76 
L 93.657307 204.062693 
L 94.426968 210.24 
M 281.413032 210.24 
L 283.281427 181.838573 
L 283.868905 176.76 
L 285.445405 146.194595 
L 285.711175 143.28 
L 286.929085 111.230915 
L 287.027458 109.8 
L 288.36 86.111508 
L 288.806207 76.32 
L 288.36 76.32 
L 286.24904 76.32 
L 286.063126 78.616874 
L 284.308991 109.8 
L 284.009928 114.150072 
L 282.902951 143.28 
L 282.355417 149.284583 
L 280.938293 176.76 
L 279.967462 185.152538 
L 278.317077 210.24 
" clip-path="url(#pa82066883a)" style="fill: #2a778e"/>
   </g>
   <g id="PathCollection_17">
    <path d="M 100.618878 210.24 
L 99.163209 198.556791 
L 97.764669 176.76 
L 96.880441 167.359559 
L 95.709621 143.28 
L 95.108759 135.651241 
L 94.016988 109.8 
L 93.978749 103.301251 
L 94.231698 76.32 
L 91.560021 76.32 
L 91.281788 105.998212 
L 91.304158 109.8 
L 92.505857 138.254143 
L 92.901707 143.28 
L 94.202725 170.037275 
L 94.835081 176.76 
L 96.410258 201.309742 
L 97.522923 210.24 
M 278.317077 210.24 
L 279.967462 185.152538 
L 280.938293 176.76 
L 282.355417 149.284583 
L 282.902951 143.28 
L 284.009928 114.150072 
L 284.308991 109.8 
L 286.063126 78.616874 
L 286.24904 76.32 
L 283.60169 76.32 
L 283.182623 81.497377 
L 281.590524 109.8 
L 281.090772 117.069228 
L 280.094726 143.28 
L 279.265429 152.374571 
L 278.00768 176.76 
L 276.653498 188.466502 
L 275.221122 210.24 
" clip-path="url(#pa82066883a)" style="fill: #277e8e"/>
   </g>
   <g id="PathCollection_18">
    <path d="M 103.714832 210.24 
L 101.91616 195.80384 
L 100.694257 176.76 
L 99.558156 164.681844 
L 98.517535 143.28 
L 97.711661 133.048339 
L 96.729818 109.8 
L 96.675711 100.604289 
L 96.903375 76.32 
L 94.231698 76.32 
L 93.978749 103.301251 
L 94.016988 109.8 
L 95.108759 135.651241 
L 95.709621 143.28 
L 96.880441 167.359559 
L 97.764669 176.76 
L 99.163209 198.556791 
L 100.618878 210.24 
M 275.221122 210.24 
L 276.653498 188.466502 
L 278.00768 176.76 
L 279.265429 152.374571 
L 280.094726 143.28 
L 281.090772 117.069228 
L 281.590524 109.8 
L 283.182623 81.497377 
L 283.60169 76.32 
L 280.95434 76.32 
L 280.302119 84.377881 
L 278.872057 109.8 
L 278.171616 119.988384 
L 277.286502 143.28 
L 276.175442 155.464558 
L 275.077067 176.76 
L 273.339533 191.780467 
L 272.125168 210.24 
" clip-path="url(#pa82066883a)" style="fill: #25838e"/>
   </g>
   <g id="PathCollection_19">
    <path d="M 106.810787 210.24 
L 104.669111 193.050889 
L 103.623844 176.76 
L 102.235871 162.004129 
L 101.325449 143.28 
L 100.314563 130.445437 
L 99.442648 109.8 
L 99.372672 97.907328 
L 99.575052 76.32 
L 96.903375 76.32 
L 96.675711 100.604289 
L 96.729818 109.8 
L 97.711661 133.048339 
L 98.517535 143.28 
L 99.558156 164.681844 
L 100.694257 176.76 
L 101.91616 195.80384 
L 103.714832 210.24 
M 272.125168 210.24 
L 273.339533 191.780467 
L 275.077067 176.76 
L 276.175442 155.464558 
L 277.286502 143.28 
L 278.171616 119.988384 
L 278.872057 109.8 
L 280.302119 84.377881 
L 280.95434 76.32 
L 278.306991 76.32 
L 277.421616 87.258384 
L 276.153589 109.8 
L 275.25246 122.90754 
L 274.478278 143.28 
L 273.085454 158.554546 
L 272.146455 176.76 
L 270.025568 195.094432 
L 269.029213 210.24 
" clip-path="url(#pa82066883a)" style="fill: #238a8d"/>
   </g>
   <g id="PathCollection_20">
    <path d="M 109.906742 210.24 
L 107.422063 190.297937 
L 106.553432 176.76 
L 104.913587 159.326413 
L 104.133363 143.28 
L 102.917466 127.842534 
L 102.155478 109.8 
L 102.069633 95.210367 
L 102.24673 76.32 
L 99.575052 76.32 
L 99.372672 97.907328 
L 99.442648 109.8 
L 100.314563 130.445437 
L 101.325449 143.28 
L 102.235871 162.004129 
L 103.623844 176.76 
L 104.669111 193.050889 
L 106.810787 210.24 
M 269.029213 210.24 
L 270.025568 195.094432 
L 272.146455 176.76 
L 273.085454 158.554546 
L 274.478278 143.28 
L 275.25246 122.90754 
L 276.153589 109.8 
L 277.421616 87.258384 
L 278.306991 76.32 
L 275.659641 76.32 
L 274.541113 90.138887 
L 273.435122 109.8 
L 272.333303 125.826697 
L 271.670054 143.28 
L 269.995466 161.644534 
L 269.215842 176.76 
L 266.711603 198.408397 
L 265.933258 210.24 
" clip-path="url(#pa82066883a)" style="fill: #21918c"/>
   </g>
   <g id="PathCollection_21">
    <path d="M 113.002697 210.24 
L 110.175014 187.544986 
L 109.48302 176.76 
L 107.591302 156.648698 
L 106.941277 143.28 
L 105.520368 125.239632 
L 104.868308 109.8 
L 104.766594 92.513406 
L 104.918407 76.32 
L 102.24673 76.32 
L 102.069633 95.210367 
L 102.155478 109.8 
L 102.917466 127.842534 
L 104.133363 143.28 
L 104.913587 159.326413 
L 106.553432 176.76 
L 107.422063 190.297937 
L 109.906742 210.24 
M 265.933258 210.24 
L 266.711603 198.408397 
L 269.215842 176.76 
L 269.995466 161.644534 
L 271.670054 143.28 
L 272.333303 125.826697 
L 273.435122 109.8 
L 274.541113 90.138887 
L 275.659641 76.32 
L 273.012291 76.32 
L 271.660609 93.019391 
L 270.716655 109.8 
L 269.414147 128.745853 
L 268.861829 143.28 
L 266.905478 164.734522 
L 266.285229 176.76 
L 263.397639 201.722361 
L 262.837303 210.24 
" clip-path="url(#pa82066883a)" style="fill: #1f968b"/>
   </g>
   <g id="PathCollection_22">
    <path d="M 116.098651 210.24 
L 112.927965 184.792035 
L 112.412608 176.76 
L 110.269018 153.970982 
L 109.74919 143.28 
L 108.12327 122.63673 
L 107.581138 109.8 
L 107.463555 89.816445 
L 107.590084 76.32 
L 104.918407 76.32 
L 104.766594 92.513406 
L 104.868308 109.8 
L 105.520368 125.239632 
L 106.941277 143.28 
L 107.591302 156.648698 
L 109.48302 176.76 
L 110.175014 187.544986 
L 113.002697 210.24 
M 262.837303 210.24 
L 263.397639 201.722361 
L 266.285229 176.76 
L 266.905478 164.734522 
L 268.861829 143.28 
L 269.414147 128.745853 
L 270.716655 109.8 
L 271.660609 93.019391 
L 273.012291 76.32 
L 270.364941 76.32 
L 268.780106 95.899894 
L 267.998188 109.8 
L 266.494991 131.665009 
L 266.053605 143.28 
L 263.815491 167.824509 
L 263.354617 176.76 
L 260.083674 205.036326 
L 259.741349 210.24 
" clip-path="url(#pa82066883a)" style="fill: #1e9d89"/>
   </g>
   <g id="PathCollection_23">
    <path d="M 119.194606 210.24 
L 115.680916 182.039084 
L 115.342196 176.76 
L 112.946733 151.293267 
L 112.557104 143.28 
L 110.726172 120.033828 
L 110.293968 109.8 
L 110.160517 87.119483 
L 110.261761 76.32 
L 107.590084 76.32 
L 107.463555 89.816445 
L 107.581138 109.8 
L 108.12327 122.63673 
L 109.74919 143.28 
L 110.269018 153.970982 
L 112.412608 176.76 
L 112.927965 184.792035 
L 116.098651 210.24 
M 259.741349 210.24 
L 260.083674 205.036326 
L 263.354617 176.76 
L 263.815491 167.824509 
L 266.053605 143.28 
L 266.494991 131.665009 
L 267.998188 109.8 
L 268.780106 95.899894 
L 270.364941 76.32 
L 267.717592 76.32 
L 265.899603 98.780397 
L 265.27972 109.8 
L 263.575835 134.584165 
L 263.245381 143.28 
L 260.725503 170.914497 
L 260.424004 176.76 
L 256.769709 208.350291 
L 256.645394 210.24 
" clip-path="url(#pa82066883a)" style="fill: #1fa287"/>
   </g>
   <g id="PathCollection_24">
    <path d="M 122.951325 210.24 
L 122.56279 208.63721 
L 120.96 199.560905 
L 118.433867 179.286133 
L 118.271783 176.76 
L 115.624448 148.615552 
L 115.365018 143.28 
L 113.329074 117.430926 
L 113.006799 109.8 
L 112.857478 84.422522 
L 112.933439 76.32 
L 110.261761 76.32 
L 110.160517 87.119483 
L 110.293968 109.8 
L 110.726172 120.033828 
L 112.557104 143.28 
L 112.946733 151.293267 
L 115.342196 176.76 
L 115.680916 182.039084 
L 119.194606 210.24 
L 120.96 210.24 
M 256.645394 210.24 
L 256.769709 208.350291 
L 260.424004 176.76 
L 260.725503 170.914497 
L 263.245381 143.28 
L 263.575835 134.584165 
L 265.27972 109.8 
L 265.899603 98.780397 
L 267.717592 76.32 
L 265.070242 76.32 
L 263.019099 101.660901 
L 262.561253 109.8 
L 260.656679 137.503321 
L 260.437157 143.28 
L 257.635515 174.004485 
L 257.493392 176.76 
L 254.88 199.35199 
L 252.888675 210.24 
L 254.88 210.24 
" clip-path="url(#pa82066883a)" style="fill: #23a983"/>
   </g>
   <g id="PathCollection_25">
    <path d="M 127.584749 210.24 
L 126.29217 204.90783 
L 121.321527 176.76 
L 121.265163 176.454837 
L 120.96 174.193926 
L 118.302164 145.937836 
L 118.172932 143.28 
L 115.931976 114.828024 
L 115.719629 109.8 
L 115.554439 81.725561 
L 115.605116 76.32 
L 112.933439 76.32 
L 112.857478 84.422522 
L 113.006799 109.8 
L 113.329074 117.430926 
L 115.365018 143.28 
L 115.624448 148.615552 
L 118.271783 176.76 
L 118.433867 179.286133 
L 120.96 199.560905 
L 122.56279 208.63721 
L 122.951325 210.24 
M 252.888675 210.24 
L 254.88 199.35199 
L 257.493392 176.76 
L 257.635515 174.004485 
L 260.437157 143.28 
L 260.656679 137.503321 
L 262.561253 109.8 
L 263.019099 101.660901 
L 265.070242 76.32 
L 262.422892 76.32 
L 260.138596 104.541404 
L 259.842786 109.8 
L 257.737522 140.422478 
L 257.628933 143.28 
L 254.88 173.426447 
L 254.405612 176.76 
L 254.266201 177.373799 
L 248.255251 210.24 
" clip-path="url(#pa82066883a)" style="fill: #28ae80"/>
   </g>
   <g id="PathCollection_26">
    <path d="M 132.218172 210.24 
L 130.02155 201.17845 
L 125.70948 176.76 
L 124.969005 172.750995 
L 120.991208 143.28 
L 120.987143 143.252857 
L 120.96 143.015335 
L 118.534879 112.225121 
L 118.432459 109.8 
L 118.2514 79.0286 
L 118.276793 76.32 
L 115.605116 76.32 
L 115.554439 81.725561 
L 115.719629 109.8 
L 115.931976 114.828024 
L 118.172932 143.28 
L 118.302164 145.937836 
L 120.96 174.193926 
L 121.265163 176.454837 
L 121.321527 176.76 
L 126.29217 204.90783 
L 127.584749 210.24 
M 248.255251 210.24 
L 254.266201 177.373799 
L 254.405612 176.76 
L 254.88 173.426447 
L 257.628933 143.28 
L 257.737522 140.422478 
L 259.842786 109.8 
L 260.138596 104.541404 
L 262.422892 76.32 
L 259.775543 76.32 
L 257.258093 107.421907 
L 257.124319 109.8 
L 254.88 142.445129 
L 254.791303 143.28 
L 254.772115 143.387885 
L 250.023031 176.76 
L 248.595689 183.044311 
L 243.621828 210.24 
" clip-path="url(#pa82066883a)" style="fill: #31b57b"/>
   </g>
   <g id="PathCollection_27">
    <path d="M 136.851596 210.24 
L 133.75093 197.44907 
L 130.097434 176.76 
L 128.672847 169.047153 
L 125.19497 143.28 
L 124.643297 139.596703 
L 121.238256 109.8 
L 121.224549 109.535451 
L 120.96 78.309666 
L 120.948361 76.331639 
L 120.94847 76.32 
L 118.276793 76.32 
L 118.2514 79.0286 
L 118.432459 109.8 
L 118.534879 112.225121 
L 120.96 143.015335 
L 120.987143 143.252857 
L 120.991208 143.28 
L 124.969005 172.750995 
L 125.70948 176.76 
L 130.02155 201.17845 
L 132.218172 210.24 
M 243.621828 210.24 
L 248.595689 183.044311 
L 250.023031 176.76 
L 254.772115 143.387885 
L 254.791303 143.28 
L 254.88 142.445129 
L 257.124319 109.8 
L 257.258093 107.421907 
L 259.775543 76.32 
L 257.128193 76.32 
L 254.88 104.095363 
L 254.172395 109.8 
L 254.060184 110.619816 
L 250.590363 143.28 
L 249.662384 148.497616 
L 245.64045 176.76 
L 242.925177 188.714823 
L 238.988404 210.24 
" clip-path="url(#pa82066883a)" style="fill: #3aba76"/>
   </g>
   <g id="PathCollection_28">
    <path d="M 141.48502 210.24 
L 137.48031 193.71969 
L 134.485387 176.76 
L 132.376689 165.343311 
L 129.398732 143.28 
L 128.299451 135.940549 
L 125.31222 109.8 
L 125.097837 105.662163 
L 124.849246 76.32 
L 120.96 76.32 
L 120.94847 76.32 
L 120.948361 76.331639 
L 120.96 78.309666 
L 121.224549 109.535451 
L 121.238256 109.8 
L 124.643297 139.596703 
L 125.19497 143.28 
L 128.672847 169.047153 
L 130.097434 176.76 
L 133.75093 197.44907 
L 136.851596 210.24 
M 238.988404 210.24 
L 242.925177 188.714823 
L 245.64045 176.76 
L 249.662384 148.497616 
L 250.590363 143.28 
L 254.060184 110.619816 
L 254.172395 109.8 
L 254.88 104.095363 
L 257.128193 76.32 
L 254.88 76.32 
L 254.268768 76.32 
L 254.18169 77.01831 
L 250.11544 109.8 
L 249.359883 115.320117 
L 246.389422 143.28 
L 244.552652 153.607348 
L 241.257869 176.76 
L 237.254664 194.385336 
L 234.35498 210.24 
" clip-path="url(#pa82066883a)" style="fill: #46c06f"/>
   </g>
   <g id="PathCollection_29">
    <path d="M 146.118443 210.24 
L 141.20969 189.99031 
L 138.873341 176.76 
L 136.080531 161.639469 
L 133.602493 143.28 
L 131.955606 132.284394 
L 129.386184 109.8 
L 128.971125 101.788875 
L 128.755349 76.32 
L 124.849246 76.32 
L 125.097837 105.662163 
L 125.31222 109.8 
L 128.299451 135.940549 
L 129.398732 143.28 
L 132.376689 165.343311 
L 134.485387 176.76 
L 137.48031 193.71969 
L 141.48502 210.24 
M 234.35498 210.24 
L 237.254664 194.385336 
L 241.257869 176.76 
L 244.552652 153.607348 
L 246.389422 143.28 
L 249.359883 115.320117 
L 250.11544 109.8 
L 254.18169 77.01831 
L 254.268768 76.32 
L 250.214863 76.32 
L 249.55025 81.64975 
L 246.058485 109.8 
L 244.659582 120.020418 
L 242.188481 143.28 
L 239.442921 158.717079 
L 236.875288 176.76 
L 231.584152 200.055848 
L 229.721557 210.24 
" clip-path="url(#pa82066883a)" style="fill: #54c568"/>
   </g>
   <g id="PathCollection_30">
    <path d="M 150.751867 210.24 
L 144.939069 186.260931 
L 143.261294 176.76 
L 139.784373 157.935627 
L 137.806255 143.28 
L 135.61176 128.62824 
L 133.460148 109.8 
L 132.844412 97.915588 
L 132.661451 76.32 
L 128.755349 76.32 
L 128.971125 101.788875 
L 129.386184 109.8 
L 131.955606 132.284394 
L 133.602493 143.28 
L 136.080531 161.639469 
L 138.873341 176.76 
L 141.20969 189.99031 
L 146.118443 210.24 
M 229.721557 210.24 
L 231.584152 200.055848 
L 236.875288 176.76 
L 239.442921 158.717079 
L 242.188481 143.28 
L 244.659582 120.020418 
L 246.058485 109.8 
L 249.55025 81.64975 
L 250.214863 76.32 
L 246.160957 76.32 
L 244.918809 86.281191 
L 242.00153 109.8 
L 239.959281 124.720719 
L 237.987541 143.28 
L 234.33319 163.82681 
L 232.492707 176.76 
L 225.91364 205.72636 
L 225.088133 210.24 
" clip-path="url(#pa82066883a)" style="fill: #60ca60"/>
   </g>
   <g id="PathCollection_31">
    <path d="M 157.13196 210.24 
L 155.983857 208.696143 
L 154.44 206.340468 
L 148.668449 182.531551 
L 147.649248 176.76 
L 143.488215 154.231785 
L 142.010017 143.28 
L 139.267914 124.972086 
L 137.534112 109.8 
L 136.7177 94.0423 
L 136.567554 76.32 
L 132.661451 76.32 
L 132.844412 97.915588 
L 133.460148 109.8 
L 135.61176 128.62824 
L 137.806255 143.28 
L 139.784373 157.935627 
L 143.261294 176.76 
L 144.939069 186.260931 
L 150.751867 210.24 
L 154.44 210.24 
M 225.088133 210.24 
L 225.91364 205.72636 
L 232.492707 176.76 
L 234.33319 163.82681 
L 237.987541 143.28 
L 239.959281 124.720719 
L 242.00153 109.8 
L 244.918809 86.281191 
L 246.160957 76.32 
L 242.107051 76.32 
L 240.287369 90.912631 
L 237.944574 109.8 
L 235.25898 129.42102 
L 233.7866 143.28 
L 229.223458 168.936542 
L 228.110126 176.76 
L 221.4 206.303385 
L 218.70804 210.24 
L 221.4 210.24 
" clip-path="url(#pa82066883a)" style="fill: #70cf57"/>
   </g>
   <g id="PathCollection_32">
    <path d="M 170.326834 210.24 
L 163.551203 201.128797 
L 154.44 187.226575 
L 152.397829 178.802171 
L 152.037201 176.76 
L 147.192057 150.527943 
L 146.213778 143.28 
L 142.924069 121.315931 
L 141.608076 109.8 
L 140.590988 90.169012 
L 140.473657 76.32 
L 136.567554 76.32 
L 136.7177 94.0423 
L 137.534112 109.8 
L 139.267914 124.972086 
L 142.010017 143.28 
L 143.488215 154.231785 
L 147.649248 176.76 
L 148.668449 182.531551 
L 154.44 206.340468 
L 155.983857 208.696143 
L 157.13196 210.24 
M 218.70804 210.24 
L 221.4 206.303385 
L 228.110126 176.76 
L 229.223458 168.936542 
L 233.7866 143.28 
L 235.25898 129.42102 
L 237.944574 109.8 
L 240.287369 90.912631 
L 242.107051 76.32 
L 238.053145 76.32 
L 235.655928 95.544072 
L 233.887619 109.8 
L 230.558679 134.121321 
L 229.585659 143.28 
L 224.113727 174.046273 
L 223.727544 176.76 
L 221.4 187.007728 
L 205.513166 210.24 
" clip-path="url(#pa82066883a)" style="fill: #7fd34e"/>
   </g>
   <g id="PathCollection_33">
    <path d="M 183.521709 210.24 
L 171.118549 193.561451 
L 160.107257 176.76 
L 158.043937 173.156063 
L 154.44 166.012191 
L 150.895899 146.824101 
L 150.41754 143.28 
L 146.580223 117.659777 
L 145.682041 109.8 
L 144.464275 86.295725 
L 144.37976 76.32 
L 140.473657 76.32 
L 140.590988 90.169012 
L 141.608076 109.8 
L 142.924069 121.315931 
L 146.213778 143.28 
L 147.192057 150.527943 
L 152.037201 176.76 
L 152.397829 178.802171 
L 154.44 187.226575 
L 163.551203 201.128797 
L 170.326834 210.24 
M 205.513166 210.24 
L 221.4 187.007728 
L 223.727544 176.76 
L 224.113727 174.046273 
L 229.585659 143.28 
L 230.558679 134.121321 
L 233.887619 109.8 
L 235.655928 95.544072 
L 238.053145 76.32 
L 233.99924 76.32 
L 231.024488 100.175512 
L 229.830664 109.8 
L 225.858377 138.821623 
L 225.384719 143.28 
L 221.4 165.684323 
L 215.562091 176.76 
L 201.830989 196.329011 
L 192.318291 210.24 
" clip-path="url(#pa82066883a)" style="fill: #90d743"/>
   </g>
   <g id="PathCollection_34">
    <path d="M 192.318291 210.24 
L 201.830989 196.329011 
L 215.562091 176.76 
L 221.4 165.684323 
L 225.384719 143.28 
L 225.858377 138.821623 
L 229.830664 109.8 
L 231.024488 100.175512 
L 233.99924 76.32 
L 229.945334 76.32 
L 226.393048 104.806952 
L 225.773709 109.8 
L 221.4 141.754423 
L 220.78498 143.28 
L 220.044983 144.635017 
L 203.112137 176.76 
L 187.92 198.41122 
L 178.685896 185.994104 
L 172.634072 176.76 
L 166.010022 165.189978 
L 154.956886 143.28 
L 154.796661 142.923339 
L 154.44 142.069522 
L 150.236377 114.003623 
L 149.756005 109.8 
L 148.337563 82.422437 
L 148.285862 76.32 
L 144.37976 76.32 
L 144.464275 86.295725 
L 145.682041 109.8 
L 146.580223 117.659777 
L 150.41754 143.28 
L 150.895899 146.824101 
L 154.44 166.012191 
L 158.043937 173.156063 
L 160.107257 176.76 
L 171.118549 193.561451 
L 183.521709 210.24 
L 187.92 210.24 
" clip-path="url(#pa82066883a)" style="fill: #a0da39"/>
   </g>
   <g id="PathCollection_35">
    <path d="M 225.891428 76.32 
L 221.761607 109.438393 
L 221.716753 109.8 
L 221.4 112.114207 
L 208.835847 143.28 
L 193.718566 170.961434 
L 190.662184 176.76 
L 187.92 180.66805 
L 186.253242 178.426758 
L 185.160887 176.76 
L 173.976108 157.223892 
L 166.941699 143.28 
L 163.066405 134.653595 
L 154.44 114.002697 
L 153.892531 110.347469 
L 153.829969 109.8 
L 152.210851 78.549149 
L 152.191965 76.32 
L 148.285862 76.32 
L 148.337563 82.422437 
L 149.756005 109.8 
L 150.236377 114.003623 
L 154.44 142.069522 
L 154.796661 142.923339 
L 154.956886 143.28 
L 166.010022 165.189978 
L 172.634072 176.76 
L 178.685896 185.994104 
L 187.92 198.41122 
L 203.112137 176.76 
L 220.044983 144.635017 
L 220.78498 143.28 
L 221.4 141.754423 
L 225.773709 109.8 
L 226.393048 104.806952 
L 229.945334 76.32 
" clip-path="url(#pa82066883a)" style="fill: #b2dd2d"/>
   </g>
   <g id="PathCollection_36">
    <path d="M 221.837522 76.32 
L 221.4 79.828635 
L 210.85577 109.8 
L 202.943125 128.256875 
L 196.886714 143.28 
L 187.92 159.699058 
L 181.942193 149.257807 
L 178.926511 143.28 
L 171.336149 126.383851 
L 164.408653 109.8 
L 162.244704 101.995296 
L 158.851356 76.32 
L 154.44 76.32 
L 152.191965 76.32 
L 152.210851 78.549149 
L 153.829969 109.8 
L 153.892531 110.347469 
L 154.44 114.002697 
L 163.066405 134.653595 
L 166.941699 143.28 
L 173.976108 157.223892 
L 185.160887 176.76 
L 186.253242 178.426758 
L 187.92 180.66805 
L 190.662184 176.76 
L 193.718566 170.961434 
L 208.835847 143.28 
L 221.4 112.114207 
L 221.716753 109.8 
L 221.761607 109.438393 
L 225.891428 76.32 
" clip-path="url(#pa82066883a)" style="fill: #c5e021"/>
   </g>
   <g id="PathCollection_37">
    <path d="M 210.293839 76.32 
L 205.659497 92.060503 
L 199.418562 109.8 
L 187.92 136.621312 
L 179.605894 118.114106 
L 176.13288 109.8 
L 171.42389 92.81611 
L 169.243699 76.32 
L 158.851356 76.32 
L 162.244704 101.995296 
L 164.408653 109.8 
L 171.336149 126.383851 
L 178.926511 143.28 
L 181.942193 149.257807 
L 187.92 159.699058 
L 196.886714 143.28 
L 202.943125 128.256875 
L 210.85577 109.8 
L 221.4 79.828635 
L 221.837522 76.32 
L 221.4 76.32 
" clip-path="url(#pa82066883a)" style="fill: #d5e21a"/>
   </g>
   <g id="PathCollection_38">
    <path d="M 197.844017 76.32 
L 188.014654 109.705346 
L 187.981354 109.8 
L 187.92 109.943113 
L 187.875638 109.844362 
L 187.857107 109.8 
L 180.603076 83.636924 
L 179.636042 76.32 
L 169.243699 76.32 
L 171.42389 92.81611 
L 176.13288 109.8 
L 179.605894 118.114106 
L 187.92 136.621312 
L 199.418562 109.8 
L 205.659497 92.060503 
L 210.293839 76.32 
" clip-path="url(#pa82066883a)" style="fill: #e7e419"/>
   </g>
   <g id="PathCollection_39">
    <path d="M 179.636042 76.32 
L 180.603076 83.636924 
L 187.857107 109.8 
L 187.875638 109.844362 
L 187.92 109.943113 
L 187.981354 109.8 
L 188.014654 109.705346 
L 197.844017 76.32 
L 187.92 76.32 
" clip-path="url(#pa82066883a)" style="fill: #f6e620"/>
   </g>
   <g id="matplotlib.axis_1">
    <g id="xtick_1">
     <g id="line2d_2">
      <defs>
       <path id="ma3de8b7ed5" d="M 0 0 
L 0 3.5 
" style="stroke: #000000; stroke-width: 0.8"/>
      </defs>
      <g>
       <use xlink:href="#ma3de8b7ed5" x="54" y="210.24" style="stroke: #000000; stroke-width: 0.8"/>
      </g>
     </g>
     <g id="text_1">
      <!-- 0.0 -->
      <g transform="translate(46.048437 224.838437) scale(0.1 -0.1)">
       <defs>
        <path id="DejaVuSans-30" d="M 2034 4250 
Q 1547 4250 1301 3770 
Q 1056 3291 1056 2328 
Q 1056 1369 1301 889 
Q 1547 409 2034 409 
Q 2525 409 2770 889 
Q 3016 1369 3016 2328 
Q 3016 3291 2770 3770 
Q 2525 4250 2034 4250 
z
M 2034 4750 
Q 2819 4750 3233 4129 
Q 3647 3509 3647 2328 
Q 3647 1150 3233 529 
Q 2819 -91 2034 -91 
Q 1250 -91 836 529 
Q 422 1150 422 2328 
Q 422 3509 836 4129 
Q 1250 4750 2034 4750 
z
" transform="scale(0.015625)"/>
        <path id="DejaVuSans-2e" d="M 684 794 
L 1344 794 
L 1344 0 
L 684 0 
L 684 794 
z
" transform="scale(0.015625)"/>
       </defs>
       <use xlink:href="#DejaVuSans-30"/>
       <use xlink:href="#DejaVuSans-2e" x="63.623047"/>
       <use xlink:href="#DejaVuSans-30" x="95.410156"/>
      </g>
     </g>
    </g>
    <g id="xtick_2">
     <g id="line2d_3">
      <g>
       <use xlink:href="#ma3de8b7ed5" x="107.568" y="210.24" style="stroke: #000000; stroke-width: 0.8"/>
      </g>
     </g>
     <g id="text_2">
      <!-- 0.2 -->
      <g transform="translate(99.616438 224.838437) scale(0.1 -0.1)">
       <defs>
        <path id="DejaVuSans-32" d="M 1228 531 
L 3431 531 
L 3431 0 
L 469 0 
L 469 531 
Q 828 903 1448 1529 
Q 2069 2156 2228 2338 
Q 2531 2678 2651 2914 
Q 2772 3150 2772 3378 
Q 2772 3750 2511 3984 
Q 2250 4219 1831 4219 
Q 1534 4219 1204 4116 
Q 875 4013 500 3803 
L 500 4441 
Q 881 4594 1212 4672 
Q 1544 4750 1819 4750 
Q 2544 4750 2975 4387 
Q 3406 4025 3406 3419 
Q 3406 3131 3298 2873 
Q 3191 2616 2906 2266 
Q 2828 2175 2409 1742 
Q 1991 1309 1228 531 
z
" transform="scale(0.015625)"/>
       </defs>
       <use xlink:href="#DejaVuSans-30"/>
       <use xlink:href="#DejaVuSans-2e" x="63.623047"/>
       <use xlink:href="#DejaVuSans-32" x="95.410156"/>
      </g>
     </g>
    </g>
    <g id="xtick_3">
     <g id="line2d_4">
      <g>
       <use xlink:href="#ma3de8b7ed5" x="161.136" y="210.24" style="stroke: #000000; stroke-width: 0.8"/>
      </g>
     </g>
     <g id="text_3">
      <!-- 0.4 -->
      <g transform="translate(153.184438 224.838437) scale(0.1 -0.1)">
       <defs>
        <path id="DejaVuSans-34" d="M 2419 4116 
L 825 1625 
L 2419 1625 
L 2419 4116 
z
M 2253 4666 
L 3047 4666 
L 3047 1625 
L 3713 1625 
L 3713 1100 
L 3047 1100 
L 3047 0 
L 2419 0 
L 2419 1100 
L 313 1100 
L 313 1709 
L 2253 4666 
z
" transform="scale(0.015625)"/>
       </defs>
       <use xlink:href="#DejaVuSans-30"/>
       <use xlink:href="#DejaVuSans-2e" x="63.623047"/>
       <use xlink:href="#DejaVuSans-34" x="95.410156"/>
      </g>
     </g>
    </g>
    <g id="xtick_4">
     <g id="line2d_5">
      <g>
       <use xlink:href="#ma3de8b7ed5" x="214.704" y="210.24" style="stroke: #000000; stroke-width: 0.8"/>
      </g>
     </g>
     <g id="text_4">
      <!-- 0.6 -->
      <g transform="translate(206.752438 224.838437) scale(0.1 -0.1)">
       <defs>
        <path id="DejaVuSans-36" d="M 2113 2584 
Q 1688 2584 1439 2293 
Q 1191 2003 1191 1497 
Q 1191 994 1439 701 
Q 1688 409 2113 409 
Q 2538 409 2786 701 
Q 3034 994 3034 1497 
Q 3034 2003 2786 2293 
Q 2538 2584 2113 2584 
z
M 3366 4563 
L 3366 3988 
Q 3128 4100 2886 4159 
Q 2644 4219 2406 4219 
Q 1781 4219 1451 3797 
Q 1122 3375 1075 2522 
Q 1259 2794 1537 2939 
Q 1816 3084 2150 3084 
Q 2853 3084 3261 2657 
Q 3669 2231 3669 1497 
Q 3669 778 3244 343 
Q 2819 -91 2113 -91 
Q 1303 -91 875 529 
Q 447 1150 447 2328 
Q 447 3434 972 4092 
Q 1497 4750 2381 4750 
Q 2619 4750 2861 4703 
Q 3103 4656 3366 4563 
z
" transform="scale(0.015625)"/>
       </defs>
       <use xlink:href="#DejaVuSans-30"/>
       <use xlink:href="#DejaVuSans-2e" x="63.623047"/>
       <use xlink:href="#DejaVuSans-36" x="95.410156"/>
      </g>
     </g>
    </g>
    <g id="xtick_5">
     <g id="line2d_6">
      <g>
       <use xlink:href="#ma3de8b7ed5" x="268.272" y="210.24" style="stroke: #000000; stroke-width: 0.8"/>
      </g>
     </g>
     <g id="text_5">
      <!-- 0.8 -->
      <g transform="translate(260.320438 224.838437) scale(0.1 -0.1)">
       <defs>
        <path id="DejaVuSans-38" d="M 2034 2216 
Q 1584 2216 1326 1975 
Q 1069 1734 1069 1313 
Q 1069 891 1326 650 
Q 1584 409 2034 409 
Q 2484 409 2743 651 
Q 3003 894 3003 1313 
Q 3003 1734 2745 1975 
Q 2488 2216 2034 2216 
z
M 1403 2484 
Q 997 2584 770 2862 
Q 544 3141 544 3541 
Q 544 4100 942 4425 
Q 1341 4750 2034 4750 
Q 2731 4750 3128 4425 
Q 3525 4100 3525 3541 
Q 3525 3141 3298 2862 
Q 3072 2584 2669 2484 
Q 3125 2378 3379 2068 
Q 3634 1759 3634 1313 
Q 3634 634 3220 271 
Q 2806 -91 2034 -91 
Q 1263 -91 848 271 
Q 434 634 434 1313 
Q 434 1759 690 2068 
Q 947 2378 1403 2484 
z
M 1172 3481 
Q 1172 3119 1398 2916 
Q 1625 2713 2034 2713 
Q 2441 2713 2670 2916 
Q 2900 3119 2900 3481 
Q 2900 3844 2670 4047 
Q 2441 4250 2034 4250 
Q 1625 4250 1398 4047 
Q 1172 3844 1172 3481 
z
" transform="scale(0.015625)"/>
       </defs>
       <use xlink:href="#DejaVuSans-30"/>
       <use xlink:href="#DejaVuSans-2e" x="63.623047"/>
       <use xlink:href="#DejaVuSans-38" x="95.410156"/>
      </g>
     </g>
    </g>
    <g id="xtick_6">
     <g id="line2d_7">
      <g>
       <use xlink:href="#ma3de8b7ed5" x="321.84" y="210.24" style="stroke: #000000; stroke-width: 0.8"/>
      </g>
     </g>
     <g id="text_6">
      <!-- 1.0 -->
      <g transform="translate(313.888438 224.838437) scale(0.1 -0.1)">
       <defs>
        <path id="DejaVuSans-31" d="M 794 531 
L 1825 531 
L 1825 4091 
L 703 3866 
L 703 4441 
L 1819 4666 
L 2450 4666 
L 2450 531 
L 3481 531 
L 3481 0 
L 794 0 
L 794 531 
z
" transform="scale(0.015625)"/>
       </defs>
       <use xlink:href="#DejaVuSans-31"/>
       <use xlink:href="#DejaVuSans-2e" x="63.623047"/>
       <use xlink:href="#DejaVuSans-30" x="95.410156"/>
      </g>
     </g>
    </g>
    <g id="text_7">
     <!-- x -->
     <g transform="translate(184.960625 238.516563) scale(0.1 -0.1)">
      <defs>
       <path id="DejaVuSans-78" d="M 3513 3500 
L 2247 1797 
L 3578 0 
L 2900 0 
L 1881 1375 
L 863 0 
L 184 0 
L 1544 1831 
L 300 3500 
L 978 3500 
L 1906 2253 
L 2834 3500 
L 3513 3500 
z
" transform="scale(0.015625)"/>
      </defs>
      <use xlink:href="#DejaVuSans-78"/>
     </g>
    </g>
   </g>
   <g id="matplotlib.axis_2">
    <g id="ytick_1">
     <g id="line2d_8">
      <defs>
       <path id="m29e61f8ae2" d="M 0 0 
L -3.5 0 
" style="stroke: #000000; stroke-width: 0.8"/>
      </defs>
      <g>
       <use xlink:href="#m29e61f8ae2" x="54" y="210.24" style="stroke: #000000; stroke-width: 0.8"/>
      </g>
     </g>
     <g id="text_8">
      <!-- 0.0 -->
      <g transform="translate(31.096875 214.039219) scale(0.1 -0.1)">
       <use xlink:href="#DejaVuSans-30"/>
       <use xlink:href="#DejaVuSans-2e" x="63.623047"/>
       <use xlink:href="#DejaVuSans-30" x="95.410156"/>
      </g>
     </g>
    </g>
    <g id="ytick_2">
     <g id="line2d_9">
      <g>
       <use xlink:href="#m29e61f8ae2" x="54" y="183.456" style="stroke: #000000; stroke-width: 0.8"/>
      </g>
     </g>
     <g id="text_9">
      <!-- 0.1 -->
      <g transform="translate(31.096875 187.255219) scale(0.1 -0.1)">
       <use xlink:href="#DejaVuSans-30"/>
       <use xlink:href="#DejaVuSans-2e" x="63.623047"/>
       <use xlink:href="#DejaVuSans-31" x="95.410156"/>
      </g>
     </g>
    </g>
    <g id="ytick_3">
     <g id="line2d_10">
      <g>
       <use xlink:href="#m29e61f8ae2" x="54" y="156.672" style="stroke: #000000; stroke-width: 0.8"/>
      </g>
     </g>
     <g id="text_10">
      <!-- 0.2 -->
      <g transform="translate(31.096875 160.471219) scale(0.1 -0.1)">
       <use xlink:href="#DejaVuSans-30"/>
       <use xlink:href="#DejaVuSans-2e" x="63.623047"/>
       <use xlink:href="#DejaVuSans-32" x="95.410156"/>
      </g>
     </g>
    </g>
    <g id="ytick_4">
     <g id="line2d_11">
      <g>
       <use xlink:href="#m29e61f8ae2" x="54" y="129.888" style="stroke: #000000; stroke-width: 0.8"/>
      </g>
     </g>
     <g id="text_11">
      <!-- 0.3 -->
      <g transform="translate(31.096875 133.687219) scale(0.1 -0.1)">
       <defs>
        <path id="DejaVuSans-33" d="M 2597 2516 
Q 3050 2419 3304 2112 
Q 3559 1806 3559 1356 
Q 3559 666 3084 287 
Q 2609 -91 1734 -91 
Q 1441 -91 1130 -33 
Q 819 25 488 141 
L 488 750 
Q 750 597 1062 519 
Q 1375 441 1716 441 
Q 2309 441 2620 675 
Q 2931 909 2931 1356 
Q 2931 1769 2642 2001 
Q 2353 2234 1838 2234 
L 1294 2234 
L 1294 2753 
L 1863 2753 
Q 2328 2753 2575 2939 
Q 2822 3125 2822 3475 
Q 2822 3834 2567 4026 
Q 2313 4219 1838 4219 
Q 1578 4219 1281 4162 
Q 984 4106 628 3988 
L 628 4550 
Q 988 4650 1302 4700 
Q 1616 4750 1894 4750 
Q 2613 4750 3031 4423 
Q 3450 4097 3450 3541 
Q 3450 3153 3228 2886 
Q 3006 2619 2597 2516 
z
" transform="scale(0.015625)"/>
       </defs>
       <use xlink:href="#DejaVuSans-30"/>
       <use xlink:href="#DejaVuSans-2e" x="63.623047"/>
       <use xlink:href="#DejaVuSans-33" x="95.410156"/>
      </g>
     </g>
    </g>
    <g id="ytick_5">
     <g id="line2d_12">
      <g>
       <use xlink:href="#m29e61f8ae2" x="54" y="103.104" style="stroke: #000000; stroke-width: 0.8"/>
      </g>
     </g>
     <g id="text_12">
      <!-- 0.4 -->
      <g transform="translate(31.096875 106.903219) scale(0.1 -0.1)">
       <use xlink:href="#DejaVuSans-30"/>
       <use xlink:href="#DejaVuSans-2e" x="63.623047"/>
       <use xlink:href="#DejaVuSans-34" x="95.410156"/>
      </g>
     </g>
    </g>
    <g id="ytick_6">
     <g id="line2d_13">
      <g>
       <use xlink:href="#m29e61f8ae2" x="54" y="76.32" style="stroke: #000000; stroke-width: 0.8"/>
      </g>
     </g>
     <g id="text_13">
      <!-- 0.5 -->
      <g transform="translate(31.096875 80.119219) scale(0.1 -0.1)">
       <defs>
        <path id="DejaVuSans-35" d="M 691 4666 
L 3169 4666 
L 3169 4134 
L 1269 4134 
L 1269 2991 
Q 1406 3038 1543 3061 
Q 1681 3084 1819 3084 
Q 2600 3084 3056 2656 
Q 3513 2228 3513 1497 
Q 3513 744 3044 326 
Q 2575 -91 1722 -91 
Q 1428 -91 1123 -41 
Q 819 9 494 109 
L 494 744 
Q 775 591 1075 516 
Q 1375 441 1709 441 
Q 2250 441 2565 725 
Q 2881 1009 2881 1497 
Q 2881 1984 2565 2268 
Q 2250 2553 1709 2553 
Q 1456 2553 1204 2497 
Q 953 2441 691 2322 
L 691 4666 
z
" transform="scale(0.015625)"/>
       </defs>
       <use xlink:href="#DejaVuSans-30"/>
       <use xlink:href="#DejaVuSans-2e" x="63.623047"/>
       <use xlink:href="#DejaVuSans-35" x="95.410156"/>
      </g>
     </g>
    </g>
    <g id="text_14">
     <!-- t -->
     <g transform="translate(25.017187 145.240156) rotate(-90) scale(0.1 -0.1)">
      <defs>
       <path id="DejaVuSans-74" d="M 1172 4494 
L 1172 3500 
L 2356 3500 
L 2356 3053 
L 1172 3053 
L 1172 1153 
Q 1172 725 1289 603 
Q 1406 481 1766 481 
L 2356 481 
L 2356 0 
L 1766 0 
Q 1100 0 847 248 
Q 594 497 594 1153 
L 594 3053 
L 172 3053 
L 172 3500 
L 594 3500 
L 594 4494 
L 1172 4494 
z
" transform="scale(0.015625)"/>
      </defs>
      <use xlink:href="#DejaVuSans-74"/>
     </g>
    </g>
   </g>
   <g id="line2d_14"/>
   <g id="patch_3">
    <path d="M 54 210.24 
L 54 76.32 
" style="fill: none; stroke: #000000; stroke-width: 0.8; stroke-linejoin: miter; stroke-linecap: square"/>
   </g>
   <g id="patch_4">
    <path d="M 321.84 210.24 
L 321.84 76.32 
" style="fill: none; stroke: #000000; stroke-width: 0.8; stroke-linejoin: miter; stroke-linecap: square"/>
   </g>
   <g id="patch_5">
    <path d="M 54 210.24 
L 321.84 210.24 
" style="fill: none; stroke: #000000; stroke-width: 0.8; stroke-linejoin: miter; stroke-linecap: square"/>
   </g>
   <g id="patch_6">
    <path d="M 54 76.32 
L 321.84 76.32 
" style="fill: none; stroke: #000000; stroke-width: 0.8; stroke-linejoin: miter; stroke-linecap: square"/>
   </g>
  </g>
  <g id="axes_2">
   <g id="patch_7">
    <path d="M 338.58 252 
L 349.452 252 
L 349.452 34.56 
L 338.58 34.56 
z
" style="fill: #ffffff"/>
   </g>
   <g id="QuadMesh_1">
    <path d="M 338.58 252 
L 349.452 252 
L 349.452 246.424615 
L 338.58 246.424615 
L 338.58 252 
" clip-path="url(#pbc4231c612)" style="fill: #450559"/>
    <path d="M 338.58 246.424615 
L 349.452 246.424615 
L 349.452 240.849231 
L 338.58 240.849231 
L 338.58 246.424615 
" clip-path="url(#pbc4231c612)" style="fill: #470e61"/>
    <path d="M 338.58 240.849231 
L 349.452 240.849231 
L 349.452 235.273846 
L 338.58 235.273846 
L 338.58 240.849231 
" clip-path="url(#pbc4231c612)" style="fill: #48186a"/>
    <path d="M 338.58 235.273846 
L 349.452 235.273846 
L 349.452 229.698462 
L 338.58 229.698462 
L 338.58 235.273846 
" clip-path="url(#pbc4231c612)" style="fill: #482071"/>
    <path d="M 338.58 229.698462 
L 349.452 229.698462 
L 349.452 224.123077 
L 338.58 224.123077 
L 338.58 229.698462 
" clip-path="url(#pbc4231c612)" style="fill: #482979"/>
    <path d="M 338.58 224.123077 
L 349.452 224.123077 
L 349.452 218.547692 
L 338.58 218.547692 
L 338.58 224.123077 
" clip-path="url(#pbc4231c612)" style="fill: #46327e"/>
    <path d="M 338.58 218.547692 
L 349.452 218.547692 
L 349.452 212.972308 
L 338.58 212.972308 
L 338.58 218.547692 
" clip-path="url(#pbc4231c612)" style="fill: #443983"/>
    <path d="M 338.58 212.972308 
L 349.452 212.972308 
L 349.452 207.396923 
L 338.58 207.396923 
L 338.58 212.972308 
" clip-path="url(#pbc4231c612)" style="fill: #424186"/>
    <path d="M 338.58 207.396923 
L 349.452 207.396923 
L 349.452 201.821538 
L 338.58 201.821538 
L 338.58 207.396923 
" clip-path="url(#pbc4231c612)" style="fill: #3f4889"/>
    <path d="M 338.58 201.821538 
L 349.452 201.821538 
L 349.452 196.246154 
L 338.58 196.246154 
L 338.58 201.821538 
" clip-path="url(#pbc4231c612)" style="fill: #3c508b"/>
    <path d="M 338.58 196.246154 
L 349.452 196.246154 
L 349.452 190.670769 
L 338.58 190.670769 
L 338.58 196.246154 
" clip-path="url(#pbc4231c612)" style="fill: #39568c"/>
    <path d="M 338.58 190.670769 
L 349.452 190.670769 
L 349.452 185.095385 
L 338.58 185.095385 
L 338.58 190.670769 
" clip-path="url(#pbc4231c612)" style="fill: #355e8d"/>
    <path d="M 338.58 185.095385 
L 349.452 185.095385 
L 349.452 179.52 
L 338.58 179.52 
L 338.58 185.095385 
" clip-path="url(#pbc4231c612)" style="fill: #32658e"/>
    <path d="M 338.58 179.52 
L 349.452 179.52 
L 349.452 173.944615 
L 338.58 173.944615 
L 338.58 179.52 
" clip-path="url(#pbc4231c612)" style="fill: #2f6b8e"/>
    <path d="M 338.58 173.944615 
L 349.452 173.944615 
L 349.452 168.369231 
L 338.58 168.369231 
L 338.58 173.944615 
" clip-path="url(#pbc4231c612)" style="fill: #2c718e"/>
    <path d="M 338.58 168.369231 
L 349.452 168.369231 
L 349.452 162.793846 
L 338.58 162.793846 
L 338.58 168.369231 
" clip-path="url(#pbc4231c612)" style="fill: #2a778e"/>
    <path d="M 338.58 162.793846 
L 349.452 162.793846 
L 349.452 157.218462 
L 338.58 157.218462 
L 338.58 162.793846 
" clip-path="url(#pbc4231c612)" style="fill: #277e8e"/>
    <path d="M 338.58 157.218462 
L 349.452 157.218462 
L 349.452 151.643077 
L 338.58 151.643077 
L 338.58 157.218462 
" clip-path="url(#pbc4231c612)" style="fill: #25838e"/>
    <path d="M 338.58 151.643077 
L 349.452 151.643077 
L 349.452 146.067692 
L 338.58 146.067692 
L 338.58 151.643077 
" clip-path="url(#pbc4231c612)" style="fill: #238a8d"/>
    <path d="M 338.58 146.067692 
L 349.452 146.067692 
L 349.452 140.492308 
L 338.58 140.492308 
L 338.58 146.067692 
" clip-path="url(#pbc4231c612)" style="fill: #21918c"/>
    <path d="M 338.58 140.492308 
L 349.452 140.492308 
L 349.452 134.916923 
L 338.58 134.916923 
L 338.58 140.492308 
" clip-path="url(#pbc4231c612)" style="fill: #1f968b"/>
    <path d="M 338.58 134.916923 
L 349.452 134.916923 
L 349.452 129.341538 
L 338.58 129.341538 
L 338.58 134.916923 
" clip-path="url(#pbc4231c612)" style="fill: #1e9d89"/>
    <path d="M 338.58 129.341538 
L 349.452 129.341538 
L 349.452 123.766154 
L 338.58 123.766154 
L 338.58 129.341538 
" clip-path="url(#pbc4231c612)" style="fill: #1fa287"/>
    <path d="M 338.58 123.766154 
L 349.452 123.766154 
L 349.452 118.190769 
L 338.58 118.190769 
L 338.58 123.766154 
" clip-path="url(#pbc4231c612)" style="fill: #23a983"/>
    <path d="M 338.58 118.190769 
L 349.452 118.190769 
L 349.452 112.615385 
L 338.58 112.615385 
L 338.58 118.190769 
" clip-path="url(#pbc4231c612)" style="fill: #28ae80"/>
    <path d="M 338.58 112.615385 
L 349.452 112.615385 
L 349.452 107.04 
L 338.58 107.04 
L 338.58 112.615385 
" clip-path="url(#pbc4231c612)" style="fill: #31b57b"/>
    <path d="M 338.58 107.04 
L 349.452 107.04 
L 349.452 101.464615 
L 338.58 101.464615 
L 338.58 107.04 
" clip-path="url(#pbc4231c612)" style="fill: #3aba76"/>
    <path d="M 338.58 101.464615 
L 349.452 101.464615 
L 349.452 95.889231 
L 338.58 95.889231 
L 338.58 101.464615 
" clip-path="url(#pbc4231c612)" style="fill: #46c06f"/>
    <path d="M 338.58 95.889231 
L 349.452 95.889231 
L 349.452 90.313846 
L 338.58 90.313846 
L 338.58 95.889231 
" clip-path="url(#pbc4231c612)" style="fill: #54c568"/>
    <path d="M 338.58 90.313846 
L 349.452 90.313846 
L 349.452 84.738462 
L 338.58 84.738462 
L 338.58 90.313846 
" clip-path="url(#pbc4231c612)" style="fill: #60ca60"/>
    <path d="M 338.58 84.738462 
L 349.452 84.738462 
L 349.452 79.163077 
L 338.58 79.163077 
L 338.58 84.738462 
" clip-path="url(#pbc4231c612)" style="fill: #70cf57"/>
    <path d="M 338.58 79.163077 
L 349.452 79.163077 
L 349.452 73.587692 
L 338.58 73.587692 
L 338.58 79.163077 
" clip-path="url(#pbc4231c612)" style="fill: #7fd34e"/>
    <path d="M 338.58 73.587692 
L 349.452 73.587692 
L 349.452 68.012308 
L 338.58 68.012308 
L 338.58 73.587692 
" clip-path="url(#pbc4231c612)" style="fill: #90d743"/>
    <path d="M 338.58 68.012308 
L 349.452 68.012308 
L 349.452 62.436923 
L 338.58 62.436923 
L 338.58 68.012308 
" clip-path="url(#pbc4231c612)" style="fill: #a0da39"/>
    <path d="M 338.58 62.436923 
L 349.452 62.436923 
L 349.452 56.861538 
L 338.58 56.861538 
L 338.58 62.436923 
" clip-path="url(#pbc4231c612)" style="fill: #b2dd2d"/>
    <path d="M 338.58 56.861538 
L 349.452 56.861538 
L 349.452 51.286154 
L 338.58 51.286154 
L 338.58 56.861538 
" clip-path="url(#pbc4231c612)" style="fill: #c5e021"/>
    <path d="M 338.58 51.286154 
L 349.452 51.286154 
L 349.452 45.710769 
L 338.58 45.710769 
L 338.58 51.286154 
" clip-path="url(#pbc4231c612)" style="fill: #d5e21a"/>
    <path d="M 338.58 45.710769 
L 349.452 45.710769 
L 349.452 40.135385 
L 338.58 40.135385 
L 338.58 45.710769 
" clip-path="url(#pbc4231c612)" style="fill: #e7e419"/>
    <path d="M 338.58 40.135385 
L 349.452 40.135385 
L 349.452 34.56 
L 338.58 34.56 
L 338.58 40.135385 
" clip-path="url(#pbc4231c612)" style="fill: #f6e620"/>
   </g>
   <g id="matplotlib.axis_3"/>
   <g id="matplotlib.axis_4">
    <g id="ytick_7">
     <g id="line2d_15">
      <defs>
       <path id="m987acab9ac" d="M 0 0 
L 3.5 0 
" style="stroke: #000000; stroke-width: 0.8"/>
      </defs>
      <g>
       <use xlink:href="#m987acab9ac" x="349.452" y="252" style="stroke: #000000; stroke-width: 0.8"/>
      </g>
     </g>
     <g id="text_15">
      <!-- 0.00 -->
      <g transform="translate(356.452 255.799219) scale(0.1 -0.1)">
       <use xlink:href="#DejaVuSans-30"/>
       <use xlink:href="#DejaVuSans-2e" x="63.623047"/>
       <use xlink:href="#DejaVuSans-30" x="95.410156"/>
       <use xlink:href="#DejaVuSans-30" x="159.033203"/>
      </g>
     </g>
    </g>
    <g id="ytick_8">
     <g id="line2d_16">
      <g>
       <use xlink:href="#m987acab9ac" x="349.452" y="229.698462" style="stroke: #000000; stroke-width: 0.8"/>
      </g>
     </g>
     <g id="text_16">
      <!-- 0.12 -->
      <g transform="translate(356.452 233.49768) scale(0.1 -0.1)">
       <use xlink:href="#DejaVuSans-30"/>
       <use xlink:href="#DejaVuSans-2e" x="63.623047"/>
       <use xlink:href="#DejaVuSans-31" x="95.410156"/>
       <use xlink:href="#DejaVuSans-32" x="159.033203"/>
      </g>
     </g>
    </g>
    <g id="ytick_9">
     <g id="line2d_17">
      <g>
       <use xlink:href="#m987acab9ac" x="349.452" y="207.396923" style="stroke: #000000; stroke-width: 0.8"/>
      </g>
     </g>
     <g id="text_17">
      <!-- 0.24 -->
      <g transform="translate(356.452 211.196142) scale(0.1 -0.1)">
       <use xlink:href="#DejaVuSans-30"/>
       <use xlink:href="#DejaVuSans-2e" x="63.623047"/>
       <use xlink:href="#DejaVuSans-32" x="95.410156"/>
       <use xlink:href="#DejaVuSans-34" x="159.033203"/>
      </g>
     </g>
    </g>
    <g id="ytick_10">
     <g id="line2d_18">
      <g>
       <use xlink:href="#m987acab9ac" x="349.452" y="185.095385" style="stroke: #000000; stroke-width: 0.8"/>
      </g>
     </g>
     <g id="text_18">
      <!-- 0.36 -->
      <g transform="translate(356.452 188.894603) scale(0.1 -0.1)">
       <use xlink:href="#DejaVuSans-30"/>
       <use xlink:href="#DejaVuSans-2e" x="63.623047"/>
       <use xlink:href="#DejaVuSans-33" x="95.410156"/>
       <use xlink:href="#DejaVuSans-36" x="159.033203"/>
      </g>
     </g>
    </g>
    <g id="ytick_11">
     <g id="line2d_19">
      <g>
       <use xlink:href="#m987acab9ac" x="349.452" y="162.793846" style="stroke: #000000; stroke-width: 0.8"/>
      </g>
     </g>
     <g id="text_19">
      <!-- 0.48 -->
      <g transform="translate(356.452 166.593065) scale(0.1 -0.1)">
       <use xlink:href="#DejaVuSans-30"/>
       <use xlink:href="#DejaVuSans-2e" x="63.623047"/>
       <use xlink:href="#DejaVuSans-34" x="95.410156"/>
       <use xlink:href="#DejaVuSans-38" x="159.033203"/>
      </g>
     </g>
    </g>
    <g id="ytick_12">
     <g id="line2d_20">
      <g>
       <use xlink:href="#m987acab9ac" x="349.452" y="140.492308" style="stroke: #000000; stroke-width: 0.8"/>
      </g>
     </g>
     <g id="text_20">
      <!-- 0.60 -->
      <g transform="translate(356.452 144.291526) scale(0.1 -0.1)">
       <use xlink:href="#DejaVuSans-30"/>
       <use xlink:href="#DejaVuSans-2e" x="63.623047"/>
       <use xlink:href="#DejaVuSans-36" x="95.410156"/>
       <use xlink:href="#DejaVuSans-30" x="159.033203"/>
      </g>
     </g>
    </g>
    <g id="ytick_13">
     <g id="line2d_21">
      <g>
       <use xlink:href="#m987acab9ac" x="349.452" y="118.190769" style="stroke: #000000; stroke-width: 0.8"/>
      </g>
     </g>
     <g id="text_21">
      <!-- 0.72 -->
      <g transform="translate(356.452 121.989988) scale(0.1 -0.1)">
       <defs>
        <path id="DejaVuSans-37" d="M 525 4666 
L 3525 4666 
L 3525 4397 
L 1831 0 
L 1172 0 
L 2766 4134 
L 525 4134 
L 525 4666 
z
" transform="scale(0.015625)"/>
       </defs>
       <use xlink:href="#DejaVuSans-30"/>
       <use xlink:href="#DejaVuSans-2e" x="63.623047"/>
       <use xlink:href="#DejaVuSans-37" x="95.410156"/>
       <use xlink:href="#DejaVuSans-32" x="159.033203"/>
      </g>
     </g>
    </g>
    <g id="ytick_14">
     <g id="line2d_22">
      <g>
       <use xlink:href="#m987acab9ac" x="349.452" y="95.889231" style="stroke: #000000; stroke-width: 0.8"/>
      </g>
     </g>
     <g id="text_22">
      <!-- 0.84 -->
      <g transform="translate(356.452 99.68845) scale(0.1 -0.1)">
       <use xlink:href="#DejaVuSans-30"/>
       <use xlink:href="#DejaVuSans-2e" x="63.623047"/>
       <use xlink:href="#DejaVuSans-38" x="95.410156"/>
       <use xlink:href="#DejaVuSans-34" x="159.033203"/>
      </g>
     </g>
    </g>
    <g id="ytick_15">
     <g id="line2d_23">
      <g>
       <use xlink:href="#m987acab9ac" x="349.452" y="73.587692" style="stroke: #000000; stroke-width: 0.8"/>
      </g>
     </g>
     <g id="text_23">
      <!-- 0.96 -->
      <g transform="translate(356.452 77.386911) scale(0.1 -0.1)">
       <defs>
        <path id="DejaVuSans-39" d="M 703 97 
L 703 672 
Q 941 559 1184 500 
Q 1428 441 1663 441 
Q 2288 441 2617 861 
Q 2947 1281 2994 2138 
Q 2813 1869 2534 1725 
Q 2256 1581 1919 1581 
Q 1219 1581 811 2004 
Q 403 2428 403 3163 
Q 403 3881 828 4315 
Q 1253 4750 1959 4750 
Q 2769 4750 3195 4129 
Q 3622 3509 3622 2328 
Q 3622 1225 3098 567 
Q 2575 -91 1691 -91 
Q 1453 -91 1209 -44 
Q 966 3 703 97 
z
M 1959 2075 
Q 2384 2075 2632 2365 
Q 2881 2656 2881 3163 
Q 2881 3666 2632 3958 
Q 2384 4250 1959 4250 
Q 1534 4250 1286 3958 
Q 1038 3666 1038 3163 
Q 1038 2656 1286 2365 
Q 1534 2075 1959 2075 
z
" transform="scale(0.015625)"/>
       </defs>
       <use xlink:href="#DejaVuSans-30"/>
       <use xlink:href="#DejaVuSans-2e" x="63.623047"/>
       <use xlink:href="#DejaVuSans-39" x="95.410156"/>
       <use xlink:href="#DejaVuSans-36" x="159.033203"/>
      </g>
     </g>
    </g>
    <g id="ytick_16">
     <g id="line2d_24">
      <g>
       <use xlink:href="#m987acab9ac" x="349.452" y="51.286154" style="stroke: #000000; stroke-width: 0.8"/>
      </g>
     </g>
     <g id="text_24">
      <!-- 1.08 -->
      <g transform="translate(356.452 55.085373) scale(0.1 -0.1)">
       <use xlink:href="#DejaVuSans-31"/>
       <use xlink:href="#DejaVuSans-2e" x="63.623047"/>
       <use xlink:href="#DejaVuSans-30" x="95.410156"/>
       <use xlink:href="#DejaVuSans-38" x="159.033203"/>
      </g>
     </g>
    </g>
   </g>
   <g id="LineCollection_1"/>
   <g id="patch_8">
    <path d="M 338.58 252 
L 344.016 252 
L 349.452 252 
L 349.452 34.56 
L 344.016 34.56 
L 338.58 34.56 
L 338.58 252 
z
" style="fill: none; stroke: #000000; stroke-width: 0.8; stroke-linejoin: miter; stroke-linecap: square"/>
   </g>
  </g>
 </g>
 <defs>
  <clipPath id="pa82066883a">
   <rect x="54" y="76.32" width="267.84" height="133.92"/>
  </clipPath>
  <clipPath id="pbc4231c612">
   <rect x="338.58" y="34.56" width="10.872" height="217.44"/>
  </clipPath>
 </defs>
</svg>
