<?xml version="1.0" encoding="utf-8" standalone="no"?>
<!DOCTYPE svg PUBLIC "-//W3C//DTD SVG 1.1//EN"
  "http://www.w3.org/Graphics/SVG/1.1/DTD/svg11.dtd">
<svg xmlns:xlink="http://www.w3.org/1999/xlink" width="432pt" height="288pt" viewBox="0 0 432 288" xmlns="http://www.w3.org/2000/svg" version="1.1">
 <metadata>
  <rdf:RDF xmlns:dc="http://purl.org/dc/elements/1.1/" xmlns:cc="http://creativecommons.org/ns#" xmlns:rdf="http://www.w3.org/1999/02/22-rdf-syntax-ns#">
   <cc:Work>
    <dc:type rdf:resource="http://purl.org/dc/dcmitype/StillImage"/>
    <dc:date>2023-07-29T23:34:06.520323</dc:date>
    <dc:format>image/svg+xml</dc:format>
    <dc:creator>
     <cc:Agent>
      <dc:title>Matplotlib v3.7.1, https://matplotlib.org/</dc:title>
     </cc:Agent>
    </dc:creator>
   </cc:Work>
  </rdf:RDF>
 </metadata>
 <defs>
  <style type="text/css">*{stroke-linejoin: round; stroke-linecap: butt}</style>
 </defs>
 <g id="figure_1">
  <g id="patch_1">
   <path d="M 0 288 
L 432 288 
L 432 0 
L 0 0 
L 0 288 
z
" style="fill: none"/>
  </g>
  <g id="axes_1">
   <g id="patch_2">
    <path d="M 54 210.24 
L 321.84 210.24 
L 321.84 76.32 
L 54 76.32 
z
" style="fill: #ffffff"/>
   </g>
   <g id="line2d_1">
    <path d="M 87.48 210.24 
L 54 210.24 
M 120.96 210.24 
L 87.48 210.24 
M 154.44 210.24 
L 120.96 210.24 
M 187.92 210.24 
L 154.44 210.24 
M 221.4 210.24 
L 187.92 210.24 
M 254.88 210.24 
L 221.4 210.24 
M 288.36 210.24 
L 254.88 210.24 
M 321.84 210.24 
L 288.36 210.24 
M 54 176.76 
L 54 210.24 
M 87.48 176.76 
L 54 210.24 
M 87.48 176.76 
L 87.48 210.24 
M 87.48 176.76 
L 54 176.76 
M 120.96 176.76 
L 87.48 210.24 
M 120.96 176.76 
L 120.96 210.24 
M 120.96 176.76 
L 87.48 176.76 
M 154.44 176.76 
L 120.96 210.24 
M 154.44 176.76 
L 154.44 210.24 
M 154.44 176.76 
L 120.96 176.76 
M 187.92 176.76 
L 154.44 210.24 
M 187.92 176.76 
L 187.92 210.24 
M 187.92 176.76 
L 154.44 176.76 
M 221.4 176.76 
L 187.92 210.24 
M 221.4 176.76 
L 221.4 210.24 
M 221.4 176.76 
L 187.92 176.76 
M 254.88 176.76 
L 221.4 210.24 
M 254.88 176.76 
L 254.88 210.24 
M 254.88 176.76 
L 221.4 176.76 
M 288.36 176.76 
L 254.88 210.24 
M 288.36 176.76 
L 288.36 210.24 
M 288.36 176.76 
L 254.88 176.76 
M 321.84 176.76 
L 288.36 210.24 
M 321.84 176.76 
L 321.84 210.24 
M 321.84 176.76 
L 288.36 176.76 
M 54 143.28 
L 54 176.76 
M 87.48 143.28 
L 54 176.76 
M 87.48 143.28 
L 87.48 176.76 
M 87.48 143.28 
L 54 143.28 
M 120.96 143.28 
L 87.48 176.76 
M 120.96 143.28 
L 120.96 176.76 
M 120.96 143.28 
L 87.48 143.28 
M 154.44 143.28 
L 120.96 176.76 
M 154.44 143.28 
L 154.44 176.76 
M 154.44 143.28 
L 120.96 143.28 
M 187.92 143.28 
L 154.44 176.76 
M 187.92 143.28 
L 187.92 176.76 
M 187.92 143.28 
L 154.44 143.28 
M 221.4 143.28 
L 187.92 176.76 
M 221.4 143.28 
L 221.4 176.76 
M 221.4 143.28 
L 187.92 143.28 
M 254.88 143.28 
L 221.4 176.76 
M 254.88 143.28 
L 254.88 176.76 
M 254.88 143.28 
L 221.4 143.28 
M 288.36 143.28 
L 254.88 176.76 
M 288.36 143.28 
L 288.36 176.76 
M 288.36 143.28 
L 254.88 143.28 
M 321.84 143.28 
L 288.36 176.76 
M 321.84 143.28 
L 321.84 176.76 
M 321.84 143.28 
L 288.36 143.28 
M 54 109.8 
L 54 143.28 
M 87.48 109.8 
L 54 143.28 
M 87.48 109.8 
L 87.48 143.28 
M 87.48 109.8 
L 54 109.8 
M 120.96 109.8 
L 87.48 143.28 
M 120.96 109.8 
L 120.96 143.28 
M 120.96 109.8 
L 87.48 109.8 
M 154.44 109.8 
L 120.96 143.28 
M 154.44 109.8 
L 154.44 143.28 
M 154.44 109.8 
L 120.96 109.8 
M 187.92 109.8 
L 154.44 143.28 
M 187.92 109.8 
L 187.92 143.28 
M 187.92 109.8 
L 154.44 109.8 
M 221.4 109.8 
L 187.92 143.28 
M 221.4 109.8 
L 221.4 143.28 
M 221.4 109.8 
L 187.92 109.8 
M 254.88 109.8 
L 221.4 143.28 
M 254.88 109.8 
L 254.88 143.28 
M 254.88 109.8 
L 221.4 109.8 
M 288.36 109.8 
L 254.88 143.28 
M 288.36 109.8 
L 288.36 143.28 
M 288.36 109.8 
L 254.88 109.8 
M 321.84 109.8 
L 288.36 143.28 
M 321.84 109.8 
L 321.84 143.28 
M 321.84 109.8 
L 288.36 109.8 
M 54 76.32 
L 54 109.8 
M 87.48 76.32 
L 54 109.8 
M 87.48 76.32 
L 87.48 109.8 
M 87.48 76.32 
L 54 76.32 
M 120.96 76.32 
L 87.48 109.8 
M 120.96 76.32 
L 120.96 109.8 
M 120.96 76.32 
L 87.48 76.32 
M 154.44 76.32 
L 120.96 109.8 
M 154.44 76.32 
L 154.44 109.8 
M 154.44 76.32 
L 120.96 76.32 
M 187.92 76.32 
L 154.44 109.8 
M 187.92 76.32 
L 187.92 109.8 
M 187.92 76.32 
L 154.44 76.32 
M 221.4 76.32 
L 187.92 109.8 
M 221.4 76.32 
L 221.4 109.8 
M 221.4 76.32 
L 187.92 76.32 
M 254.88 76.32 
L 221.4 109.8 
M 254.88 76.32 
L 254.88 109.8 
M 254.88 76.32 
L 221.4 76.32 
M 288.36 76.32 
L 254.88 109.8 
M 288.36 76.32 
L 288.36 109.8 
M 288.36 76.32 
L 254.88 76.32 
M 321.84 76.32 
L 288.36 109.8 
M 321.84 76.32 
L 321.84 109.8 
M 321.84 76.32 
L 288.36 76.32 
L 288.36 76.32 
" clip-path="url(#p6388d363c3)" style="fill: none; stroke: #808080; stroke-width: 1.5; stroke-linecap: square"/>
   </g>
   <g id="PathCollection_1">
    <path d="M 56.624624 210.24 
L 56.482293 207.757707 
L 56.482293 176.76 
L 56.378397 174.381603 
L 56.378397 143.28 
L 56.302439 140.977561 
L 56.302439 109.8 
L 56.246722 107.553278 
L 56.246722 76.32 
L 54 76.32 
L 54 109.8 
L 54 143.28 
L 54 176.76 
L 54 210.24 
M 319.593278 76.32 
L 319.535022 78.624978 
L 319.535022 109.8 
L 319.458357 112.181643 
L 319.458357 143.28 
L 319.353847 145.766153 
L 319.353847 176.76 
L 319.215376 179.384624 
L 319.215376 210.24 
L 321.84 210.24 
L 321.84 176.76 
L 321.84 143.28 
L 321.84 109.8 
L 321.84 76.32 
" clip-path="url(#p6388d363c3)" style="fill: #450559"/>
   </g>
   <g id="PathCollection_2">
    <path d="M 59.249247 210.24 
L 58.964587 205.275413 
L 58.964587 176.76 
L 58.756795 172.003205 
L 58.756795 143.28 
L 58.604878 138.675122 
L 58.604878 109.8 
L 58.493445 105.306555 
L 58.493445 76.32 
L 56.246722 76.32 
L 56.246722 107.553278 
L 56.302439 109.8 
L 56.302439 140.977561 
L 56.378397 143.28 
L 56.378397 174.381603 
L 56.482293 176.76 
L 56.482293 207.757707 
L 56.624624 210.24 
M 319.215376 210.24 
L 319.215376 179.384624 
L 319.353847 176.76 
L 319.353847 145.766153 
L 319.458357 143.28 
L 319.458357 112.181643 
L 319.535022 109.8 
L 319.535022 78.624978 
L 319.593278 76.32 
L 317.346555 76.32 
L 317.230044 80.929956 
L 317.230044 109.8 
L 317.076714 114.563286 
L 317.076714 143.28 
L 316.867695 148.252305 
L 316.867695 176.76 
L 316.590753 182.009247 
L 316.590753 210.24 
" clip-path="url(#p6388d363c3)" style="fill: #470e61"/>
   </g>
   <g id="PathCollection_3">
    <path d="M 61.873871 210.24 
L 61.44688 202.79312 
L 61.44688 176.76 
L 61.135192 169.624808 
L 61.135192 143.28 
L 60.907317 136.372683 
L 60.907317 109.8 
L 60.740167 103.059833 
L 60.740167 76.32 
L 58.493445 76.32 
L 58.493445 105.306555 
L 58.604878 109.8 
L 58.604878 138.675122 
L 58.756795 143.28 
L 58.756795 172.003205 
L 58.964587 176.76 
L 58.964587 205.275413 
L 59.249247 210.24 
M 316.590753 210.24 
L 316.590753 182.009247 
L 316.867695 176.76 
L 316.867695 148.252305 
L 317.076714 143.28 
L 317.076714 114.563286 
L 317.230044 109.8 
L 317.230044 80.929956 
L 317.346555 76.32 
L 315.099833 76.32 
L 314.925066 83.234934 
L 314.925066 109.8 
L 314.695071 116.944929 
L 314.695071 143.28 
L 314.381542 150.738458 
L 314.381542 176.76 
L 313.966129 184.633871 
L 313.966129 210.24 
" clip-path="url(#p6388d363c3)" style="fill: #48186a"/>
   </g>
   <g id="PathCollection_4">
    <path d="M 64.498495 210.24 
L 63.929173 200.310827 
L 63.929173 176.76 
L 63.513589 167.246411 
L 63.513589 143.28 
L 63.209756 134.070244 
L 63.209756 109.8 
L 62.986889 100.813111 
L 62.986889 76.32 
L 60.740167 76.32 
L 60.740167 103.059833 
L 60.907317 109.8 
L 60.907317 136.372683 
L 61.135192 143.28 
L 61.135192 169.624808 
L 61.44688 176.76 
L 61.44688 202.79312 
L 61.873871 210.24 
M 313.966129 210.24 
L 313.966129 184.633871 
L 314.381542 176.76 
L 314.381542 150.738458 
L 314.695071 143.28 
L 314.695071 116.944929 
L 314.925066 109.8 
L 314.925066 83.234934 
L 315.099833 76.32 
L 312.853111 76.32 
L 312.620088 85.539912 
L 312.620088 109.8 
L 312.313428 119.326572 
L 312.313428 143.28 
L 311.895389 153.224611 
L 311.895389 176.76 
L 311.341505 187.258495 
L 311.341505 210.24 
" clip-path="url(#p6388d363c3)" style="fill: #482071"/>
   </g>
   <g id="PathCollection_5">
    <path d="M 67.123118 210.24 
L 66.411467 197.828533 
L 66.411467 176.76 
L 65.891987 164.868013 
L 65.891987 143.28 
L 65.512195 131.767805 
L 65.512195 109.8 
L 65.233612 98.566388 
L 65.233612 76.32 
L 62.986889 76.32 
L 62.986889 100.813111 
L 63.209756 109.8 
L 63.209756 134.070244 
L 63.513589 143.28 
L 63.513589 167.246411 
L 63.929173 176.76 
L 63.929173 200.310827 
L 64.498495 210.24 
M 311.341505 210.24 
L 311.341505 187.258495 
L 311.895389 176.76 
L 311.895389 153.224611 
L 312.313428 143.28 
L 312.313428 119.326572 
L 312.620088 109.8 
L 312.620088 85.539912 
L 312.853111 76.32 
L 310.606388 76.32 
L 310.31511 87.84489 
L 310.31511 109.8 
L 309.931785 121.708215 
L 309.931785 143.28 
L 309.409236 155.710764 
L 309.409236 176.76 
L 308.716882 189.883118 
L 308.716882 210.24 
" clip-path="url(#p6388d363c3)" style="fill: #482979"/>
   </g>
   <g id="PathCollection_6">
    <path d="M 69.747742 210.24 
L 68.89376 195.34624 
L 68.89376 176.76 
L 68.270384 162.489616 
L 68.270384 143.28 
L 67.814633 129.465367 
L 67.814633 109.8 
L 67.480334 96.319666 
L 67.480334 76.32 
L 65.233612 76.32 
L 65.233612 98.566388 
L 65.512195 109.8 
L 65.512195 131.767805 
L 65.891987 143.28 
L 65.891987 164.868013 
L 66.411467 176.76 
L 66.411467 197.828533 
L 67.123118 210.24 
M 308.716882 210.24 
L 308.716882 189.883118 
L 309.409236 176.76 
L 309.409236 155.710764 
L 309.931785 143.28 
L 309.931785 121.708215 
L 310.31511 109.8 
L 310.31511 87.84489 
L 310.606388 76.32 
L 308.359666 76.32 
L 308.010132 90.149868 
L 308.010132 109.8 
L 307.550142 124.089858 
L 307.550142 143.28 
L 306.923084 158.196916 
L 306.923084 176.76 
L 306.092258 192.507742 
L 306.092258 210.24 
" clip-path="url(#p6388d363c3)" style="fill: #46327e"/>
   </g>
   <g id="PathCollection_7">
    <path d="M 72.372366 210.24 
L 71.376054 192.863946 
L 71.376054 176.76 
L 70.648781 160.111219 
L 70.648781 143.28 
L 70.117072 127.162928 
L 70.117072 109.8 
L 69.727056 94.072944 
L 69.727056 76.32 
L 67.480334 76.32 
L 67.480334 96.319666 
L 67.814633 109.8 
L 67.814633 129.465367 
L 68.270384 143.28 
L 68.270384 162.489616 
L 68.89376 176.76 
L 68.89376 195.34624 
L 69.747742 210.24 
M 306.092258 210.24 
L 306.092258 192.507742 
L 306.923084 176.76 
L 306.923084 158.196916 
L 307.550142 143.28 
L 307.550142 124.089858 
L 308.010132 109.8 
L 308.010132 90.149868 
L 308.359666 76.32 
L 306.112944 76.32 
L 305.705154 92.454846 
L 305.705154 109.8 
L 305.168499 126.471501 
L 305.168499 143.28 
L 304.436931 160.683069 
L 304.436931 176.76 
L 303.467634 195.132366 
L 303.467634 210.24 
" clip-path="url(#p6388d363c3)" style="fill: #443983"/>
   </g>
   <g id="PathCollection_8">
    <path d="M 74.996989 210.24 
L 73.858347 190.381653 
L 73.858347 176.76 
L 73.027179 157.732821 
L 73.027179 143.28 
L 72.419511 124.860489 
L 72.419511 109.8 
L 71.973779 91.826221 
L 71.973779 76.32 
L 69.727056 76.32 
L 69.727056 94.072944 
L 70.117072 109.8 
L 70.117072 127.162928 
L 70.648781 143.28 
L 70.648781 160.111219 
L 71.376054 176.76 
L 71.376054 192.863946 
L 72.372366 210.24 
M 303.467634 210.24 
L 303.467634 195.132366 
L 304.436931 176.76 
L 304.436931 160.683069 
L 305.168499 143.28 
L 305.168499 126.471501 
L 305.705154 109.8 
L 305.705154 92.454846 
L 306.112944 76.32 
L 303.866221 76.32 
L 303.400176 94.759824 
L 303.400176 109.8 
L 302.786856 128.853144 
L 302.786856 143.28 
L 301.950778 163.169222 
L 301.950778 176.76 
L 300.843011 197.756989 
L 300.843011 210.24 
" clip-path="url(#p6388d363c3)" style="fill: #424186"/>
   </g>
   <g id="PathCollection_9">
    <path d="M 77.621613 210.24 
L 76.34064 187.89936 
L 76.34064 176.76 
L 75.405576 155.354424 
L 75.405576 143.28 
L 74.72195 122.55805 
L 74.72195 109.8 
L 74.220501 89.579499 
L 74.220501 76.32 
L 71.973779 76.32 
L 71.973779 91.826221 
L 72.419511 109.8 
L 72.419511 124.860489 
L 73.027179 143.28 
L 73.027179 157.732821 
L 73.858347 176.76 
L 73.858347 190.381653 
L 74.996989 210.24 
M 300.843011 210.24 
L 300.843011 197.756989 
L 301.950778 176.76 
L 301.950778 163.169222 
L 302.786856 143.28 
L 302.786856 128.853144 
L 303.400176 109.8 
L 303.400176 94.759824 
L 303.866221 76.32 
L 301.619499 76.32 
L 301.095198 97.064802 
L 301.095198 109.8 
L 300.405213 131.234787 
L 300.405213 143.28 
L 299.464626 165.655374 
L 299.464626 176.76 
L 298.218387 200.381613 
L 298.218387 210.24 
" clip-path="url(#p6388d363c3)" style="fill: #3f4889"/>
   </g>
   <g id="PathCollection_10">
    <path d="M 80.246237 210.24 
L 78.822934 185.417066 
L 78.822934 176.76 
L 77.783973 152.976027 
L 77.783973 143.28 
L 77.024389 120.255611 
L 77.024389 109.8 
L 76.467223 87.332777 
L 76.467223 76.32 
L 74.220501 76.32 
L 74.220501 89.579499 
L 74.72195 109.8 
L 74.72195 122.55805 
L 75.405576 143.28 
L 75.405576 155.354424 
L 76.34064 176.76 
L 76.34064 187.89936 
L 77.621613 210.24 
M 298.218387 210.24 
L 298.218387 200.381613 
L 299.464626 176.76 
L 299.464626 165.655374 
L 300.405213 143.28 
L 300.405213 131.234787 
L 301.095198 109.8 
L 301.095198 97.064802 
L 301.619499 76.32 
L 299.372777 76.32 
L 298.79022 99.36978 
L 298.79022 109.8 
L 298.02357 133.61643 
L 298.02357 143.28 
L 296.978473 168.141527 
L 296.978473 176.76 
L 295.593763 203.006237 
L 295.593763 210.24 
" clip-path="url(#p6388d363c3)" style="fill: #3c508b"/>
   </g>
   <g id="PathCollection_11">
    <path d="M 82.870861 210.24 
L 81.305227 182.934773 
L 81.305227 176.76 
L 80.162371 150.597629 
L 80.162371 143.28 
L 79.326828 117.953172 
L 79.326828 109.8 
L 78.713946 85.086054 
L 78.713946 76.32 
L 76.467223 76.32 
L 76.467223 87.332777 
L 77.024389 109.8 
L 77.024389 120.255611 
L 77.783973 143.28 
L 77.783973 152.976027 
L 78.822934 176.76 
L 78.822934 185.417066 
L 80.246237 210.24 
M 295.593763 210.24 
L 295.593763 203.006237 
L 296.978473 176.76 
L 296.978473 168.141527 
L 298.02357 143.28 
L 298.02357 133.61643 
L 298.79022 109.8 
L 298.79022 99.36978 
L 299.372777 76.32 
L 297.126054 76.32 
L 296.485242 101.674758 
L 296.485242 109.8 
L 295.641927 135.998073 
L 295.641927 143.28 
L 294.49232 170.62768 
L 294.49232 176.76 
L 292.969139 205.630861 
L 292.969139 210.24 
" clip-path="url(#p6388d363c3)" style="fill: #39568c"/>
   </g>
   <g id="PathCollection_12">
    <path d="M 85.495484 210.24 
L 83.78752 180.45248 
L 83.78752 176.76 
L 82.540768 148.219232 
L 82.540768 143.28 
L 81.629267 115.650733 
L 81.629267 109.8 
L 80.960668 82.839332 
L 80.960668 76.32 
L 78.713946 76.32 
L 78.713946 85.086054 
L 79.326828 109.8 
L 79.326828 117.953172 
L 80.162371 143.28 
L 80.162371 150.597629 
L 81.305227 176.76 
L 81.305227 182.934773 
L 82.870861 210.24 
M 292.969139 210.24 
L 292.969139 205.630861 
L 294.49232 176.76 
L 294.49232 170.62768 
L 295.641927 143.28 
L 295.641927 135.998073 
L 296.485242 109.8 
L 296.485242 101.674758 
L 297.126054 76.32 
L 294.879332 76.32 
L 294.180264 103.979736 
L 294.180264 109.8 
L 293.260284 138.379716 
L 293.260284 143.28 
L 292.006167 173.113833 
L 292.006167 176.76 
L 290.344516 208.255484 
L 290.344516 210.24 
" clip-path="url(#p6388d363c3)" style="fill: #355e8d"/>
   </g>
   <g id="PathCollection_13">
    <path d="M 88.235059 210.24 
L 88.151575 209.568425 
L 87.48 199.076281 
L 86.269814 177.970186 
L 86.269814 176.76 
L 84.919165 145.840835 
L 84.919165 143.28 
L 83.931706 113.348294 
L 83.931706 109.8 
L 83.207391 80.592609 
L 83.207391 76.32 
L 80.960668 76.32 
L 80.960668 82.839332 
L 81.629267 109.8 
L 81.629267 115.650733 
L 82.540768 143.28 
L 82.540768 148.219232 
L 83.78752 176.76 
L 83.78752 180.45248 
L 85.495484 210.24 
L 87.48 210.24 
M 290.344516 210.24 
L 290.344516 208.255484 
L 292.006167 176.76 
L 292.006167 173.113833 
L 293.260284 143.28 
L 293.260284 138.379716 
L 294.180264 109.8 
L 294.180264 103.979736 
L 294.879332 76.32 
L 292.632609 76.32 
L 291.875286 106.284714 
L 291.875286 109.8 
L 290.878641 140.761359 
L 290.878641 143.28 
L 289.520015 175.599985 
L 289.520015 176.76 
L 288.36 198.747295 
L 287.604941 210.24 
L 288.36 210.24 
" clip-path="url(#p6388d363c3)" style="fill: #32658e"/>
   </g>
   <g id="PathCollection_14">
    <path d="M 91.331013 210.24 
L 90.905225 206.814775 
L 88.981495 176.76 
L 88.850791 175.389209 
L 87.48 147.638807 
L 87.297563 143.462437 
L 87.297563 143.28 
L 86.234145 111.045855 
L 86.234145 109.8 
L 85.454113 78.345887 
L 85.454113 76.32 
L 83.207391 76.32 
L 83.207391 80.592609 
L 83.931706 109.8 
L 83.931706 113.348294 
L 84.919165 143.28 
L 84.919165 145.840835 
L 86.269814 176.76 
L 86.269814 177.970186 
L 87.48 199.076281 
L 88.151575 209.568425 
L 88.235059 210.24 
M 287.604941 210.24 
L 288.36 198.747295 
L 289.520015 176.76 
L 289.520015 175.599985 
L 290.878641 143.28 
L 290.878641 140.761359 
L 291.875286 109.8 
L 291.875286 106.284714 
L 292.632609 76.32 
L 290.385887 76.32 
L 289.570308 108.589692 
L 289.570308 109.8 
L 288.496998 143.143002 
L 288.496998 143.28 
L 288.36 146.539014 
L 286.796654 176.76 
L 286.592462 178.527538 
L 284.508987 210.24 
" clip-path="url(#p6388d363c3)" style="fill: #2f6b8e"/>
   </g>
   <g id="PathCollection_15">
    <path d="M 94.426968 210.24 
L 93.658875 204.061125 
L 91.911399 176.76 
L 91.525649 172.714351 
L 90.071675 143.28 
L 89.897533 140.862467 
L 88.726852 109.8 
L 88.662414 108.617586 
L 87.740493 76.32 
L 87.48 76.32 
L 85.454113 76.32 
L 85.454113 78.345887 
L 86.234145 109.8 
L 86.234145 111.045855 
L 87.297563 143.28 
L 87.297563 143.462437 
L 87.48 147.638807 
L 88.850791 175.389209 
L 88.981495 176.76 
L 90.905225 206.814775 
L 91.331013 210.24 
M 284.508987 210.24 
L 286.592462 178.527538 
L 286.796654 176.76 
L 288.36 146.539014 
L 288.496998 143.28 
L 288.496998 143.143002 
L 289.570308 109.8 
L 289.570308 108.589692 
L 290.385887 76.32 
L 288.36 76.32 
L 288.099507 76.32 
L 288.084437 76.595563 
L 287.069275 109.8 
L 286.972076 111.187924 
L 285.71365 143.28 
L 285.447048 146.192952 
L 283.8658 176.76 
L 283.278804 181.841196 
L 281.413032 210.24 
" clip-path="url(#p6388d363c3)" style="fill: #2c718e"/>
   </g>
   <g id="PathCollection_16">
    <path d="M 97.522923 210.24 
L 96.412525 201.307475 
L 94.841303 176.76 
L 94.200507 170.039493 
L 92.878663 143.28 
L 92.515911 138.244089 
L 91.443912 109.8 
L 91.239055 106.040945 
L 90.390683 76.32 
L 87.740493 76.32 
L 88.662414 108.617586 
L 88.726852 109.8 
L 89.897533 140.862467 
L 90.071675 143.28 
L 91.525649 172.714351 
L 91.911399 176.76 
L 93.658875 204.061125 
L 94.426968 210.24 
M 281.413032 210.24 
L 283.278804 181.841196 
L 283.8658 176.76 
L 285.447048 146.192952 
L 285.71365 143.28 
L 286.972076 111.187924 
L 287.069275 109.8 
L 288.084437 76.595563 
L 288.099507 76.32 
L 285.449317 76.32 
L 285.280926 79.399074 
L 284.351476 109.8 
L 284.049612 114.110388 
L 282.905784 143.28 
L 282.356309 149.283691 
L 280.934946 176.76 
L 279.965145 185.154855 
L 278.317077 210.24 
" clip-path="url(#p6388d363c3)" style="fill: #2a778e"/>
   </g>
   <g id="PathCollection_17">
    <path d="M 100.618878 210.24 
L 99.166175 198.553825 
L 97.771207 176.76 
L 96.875364 167.364636 
L 95.685652 143.28 
L 95.13429 135.62571 
L 94.160971 109.8 
L 93.815695 103.464305 
L 93.040872 76.32 
L 90.390683 76.32 
L 91.239055 106.040945 
L 91.443912 109.8 
L 92.515911 138.244089 
L 92.878663 143.28 
L 94.200507 170.039493 
L 94.841303 176.76 
L 96.412525 201.307475 
L 97.522923 210.24 
M 278.317077 210.24 
L 279.965145 185.154855 
L 280.934946 176.76 
L 282.356309 149.283691 
L 282.905784 143.28 
L 284.049612 114.110388 
L 284.351476 109.8 
L 285.280926 79.399074 
L 285.449317 76.32 
L 282.799128 76.32 
L 282.477416 82.202584 
L 281.633678 109.8 
L 281.127148 117.032852 
L 280.097919 143.28 
L 279.265569 152.374431 
L 278.004092 176.76 
L 276.651486 188.468514 
L 275.221122 210.24 
" clip-path="url(#p6388d363c3)" style="fill: #277e8e"/>
   </g>
   <g id="PathCollection_18">
    <path d="M 103.714832 210.24 
L 101.919824 195.800176 
L 100.701111 176.76 
L 99.550222 164.689778 
L 98.49264 143.28 
L 97.752668 133.007332 
L 96.878031 109.8 
L 96.392336 100.887664 
L 95.691062 76.32 
L 93.040872 76.32 
L 93.815695 103.464305 
L 94.160971 109.8 
L 95.13429 135.62571 
L 95.685652 143.28 
L 96.875364 167.364636 
L 97.771207 176.76 
L 99.166175 198.553825 
L 100.618878 210.24 
M 275.221122 210.24 
L 276.651486 188.468514 
L 278.004092 176.76 
L 279.265569 152.374431 
L 280.097919 143.28 
L 281.127148 117.032852 
L 281.633678 109.8 
L 282.477416 82.202584 
L 282.799128 76.32 
L 280.148938 76.32 
L 279.673905 85.006095 
L 278.915879 109.8 
L 278.204684 119.955316 
L 277.290053 143.28 
L 276.17483 155.46517 
L 275.073238 176.76 
L 273.337828 191.782172 
L 272.125168 210.24 
" clip-path="url(#p6388d363c3)" style="fill: #25838e"/>
   </g>
   <g id="PathCollection_19">
    <path d="M 106.810787 210.24 
L 104.673474 193.046526 
L 103.631015 176.76 
L 102.22508 162.01492 
L 101.299628 143.28 
L 100.371046 130.388954 
L 99.59509 109.8 
L 98.968976 98.311024 
L 98.341252 76.32 
L 95.691062 76.32 
L 96.392336 100.887664 
L 96.878031 109.8 
L 97.752668 133.007332 
L 98.49264 143.28 
L 99.550222 164.689778 
L 100.701111 176.76 
L 101.919824 195.800176 
L 103.714832 210.24 
M 272.125168 210.24 
L 273.337828 191.782172 
L 275.073238 176.76 
L 276.17483 155.46517 
L 277.290053 143.28 
L 278.204684 119.955316 
L 278.915879 109.8 
L 279.673905 85.006095 
L 280.148938 76.32 
L 277.498748 76.32 
L 276.870394 87.809606 
L 276.19808 109.8 
L 275.282219 122.877781 
L 274.482188 143.28 
L 273.084091 158.555909 
L 272.142384 176.76 
L 270.024169 195.095831 
L 269.029213 210.24 
" clip-path="url(#p6388d363c3)" style="fill: #238a8d"/>
   </g>
   <g id="PathCollection_20">
    <path d="M 109.906742 210.24 
L 107.427124 190.292876 
L 106.560919 176.76 
L 104.899937 159.340063 
L 104.106616 143.28 
L 102.989424 127.770576 
L 102.31215 109.8 
L 101.545617 95.734383 
L 100.991441 76.32 
L 98.341252 76.32 
L 98.968976 98.311024 
L 99.59509 109.8 
L 100.371046 130.388954 
L 101.299628 143.28 
L 102.22508 162.01492 
L 103.631015 176.76 
L 104.673474 193.046526 
L 106.810787 210.24 
M 269.029213 210.24 
L 270.024169 195.095831 
L 272.142384 176.76 
L 273.084091 158.555909 
L 274.482188 143.28 
L 275.282219 122.877781 
L 276.19808 109.8 
L 276.870394 87.809606 
L 277.498748 76.32 
L 274.848559 76.32 
L 274.066884 90.613116 
L 273.480281 109.8 
L 272.359755 125.800245 
L 271.674322 143.28 
L 269.993351 161.646649 
L 269.211531 176.76 
L 266.71051 198.40949 
L 265.933258 210.24 
" clip-path="url(#p6388d363c3)" style="fill: #21918c"/>
   </g>
   <g id="PathCollection_21">
    <path d="M 113.002697 210.24 
L 110.180774 187.539226 
L 109.490823 176.76 
L 107.574795 156.665205 
L 106.913604 143.28 
L 105.607803 125.152197 
L 105.029209 109.8 
L 104.122257 93.157743 
L 103.641631 76.32 
L 100.991441 76.32 
L 101.545617 95.734383 
L 102.31215 109.8 
L 102.989424 127.770576 
L 104.106616 143.28 
L 104.899937 159.340063 
L 106.560919 176.76 
L 107.427124 190.292876 
L 109.906742 210.24 
M 265.933258 210.24 
L 266.71051 198.40949 
L 269.211531 176.76 
L 269.993351 161.646649 
L 271.674322 143.28 
L 272.359755 125.800245 
L 273.480281 109.8 
L 274.066884 90.613116 
L 274.848559 76.32 
L 272.198369 76.32 
L 271.263373 93.416627 
L 270.762483 109.8 
L 269.437291 128.722709 
L 268.866456 143.28 
L 266.902612 164.737388 
L 266.280677 176.76 
L 263.396852 201.723148 
L 262.837303 210.24 
" clip-path="url(#p6388d363c3)" style="fill: #1f968b"/>
   </g>
   <g id="PathCollection_22">
    <path d="M 116.098651 210.24 
L 112.934424 184.785576 
L 112.420727 176.76 
L 110.249653 153.990347 
L 109.720592 143.28 
L 108.226181 122.533819 
L 107.746269 109.8 
L 106.698898 90.581102 
L 106.291821 76.32 
L 103.641631 76.32 
L 104.122257 93.157743 
L 105.029209 109.8 
L 105.607803 125.152197 
L 106.913604 143.28 
L 107.574795 156.665205 
L 109.490823 176.76 
L 110.180774 187.539226 
L 113.002697 210.24 
M 262.837303 210.24 
L 263.396852 201.723148 
L 266.280677 176.76 
L 266.902612 164.737388 
L 268.866456 143.28 
L 269.437291 128.722709 
L 270.762483 109.8 
L 271.263373 93.416627 
L 272.198369 76.32 
L 269.548179 76.32 
L 268.459862 96.220138 
L 268.044684 109.8 
L 266.514827 131.645173 
L 266.058591 143.28 
L 263.811873 167.828127 
L 263.349823 176.76 
L 260.083193 205.036807 
L 259.741349 210.24 
" clip-path="url(#p6388d363c3)" style="fill: #1e9d89"/>
   </g>
   <g id="PathCollection_23">
    <path d="M 119.194606 210.24 
L 115.688073 182.031927 
L 115.350631 176.76 
L 112.924511 151.315489 
L 112.52758 143.28 
L 110.844559 119.915441 
L 110.463329 109.8 
L 109.275539 88.004461 
L 108.942011 76.32 
L 106.291821 76.32 
L 106.698898 90.581102 
L 107.746269 109.8 
L 108.226181 122.533819 
L 109.720592 143.28 
L 110.249653 153.990347 
L 112.420727 176.76 
L 112.934424 184.785576 
L 116.098651 210.24 
M 259.741349 210.24 
L 260.083193 205.036807 
L 263.349823 176.76 
L 263.811873 167.828127 
L 266.058591 143.28 
L 266.514827 131.645173 
L 268.044684 109.8 
L 268.459862 96.220138 
L 269.548179 76.32 
L 266.897989 76.32 
L 265.656352 99.023648 
L 265.326885 109.8 
L 263.592363 134.567637 
L 263.250725 143.28 
L 260.721133 170.918867 
L 260.418969 176.76 
L 256.769534 208.350466 
L 256.645394 210.24 
" clip-path="url(#p6388d363c3)" style="fill: #1fa287"/>
   </g>
   <g id="PathCollection_24">
    <path d="M 122.951325 210.24 
L 122.563427 208.636573 
L 120.96 199.536391 
L 118.441723 179.278277 
L 118.280535 176.76 
L 115.599368 148.640632 
L 115.334568 143.28 
L 113.462937 117.297063 
L 113.180388 109.8 
L 111.852179 85.427821 
L 111.5922 76.32 
L 108.942011 76.32 
L 109.275539 88.004461 
L 110.463329 109.8 
L 110.844559 119.915441 
L 112.52758 143.28 
L 112.924511 151.315489 
L 115.350631 176.76 
L 115.688073 182.031927 
L 119.194606 210.24 
L 120.96 210.24 
M 256.645394 210.24 
L 256.769534 208.350466 
L 260.418969 176.76 
L 260.721133 170.918867 
L 263.250725 143.28 
L 263.592363 134.567637 
L 265.326885 109.8 
L 265.656352 99.023648 
L 266.897989 76.32 
L 264.2478 76.32 
L 262.852841 101.827159 
L 262.609087 109.8 
L 260.669899 137.490101 
L 260.44286 143.28 
L 257.630394 174.009606 
L 257.488115 176.76 
L 254.88 199.33653 
L 252.888675 210.24 
L 254.88 210.24 
" clip-path="url(#p6388d363c3)" style="fill: #23a983"/>
   </g>
   <g id="PathCollection_25">
    <path d="M 127.584749 210.24 
L 126.294289 204.905711 
L 121.335091 176.76 
L 121.276083 176.443917 
L 120.96 174.133466 
L 118.274226 145.965774 
L 118.141556 143.28 
L 116.081316 114.678684 
L 115.897448 109.8 
L 114.42882 82.85118 
L 114.24239 76.32 
L 111.5922 76.32 
L 111.852179 85.427821 
L 113.180388 109.8 
L 113.462937 117.297063 
L 115.334568 143.28 
L 115.599368 148.640632 
L 118.280535 176.76 
L 118.441723 179.278277 
L 120.96 199.536391 
L 122.563427 208.636573 
L 122.951325 210.24 
M 252.888675 210.24 
L 254.88 199.33653 
L 257.488115 176.76 
L 257.630394 174.009606 
L 260.44286 143.28 
L 260.669899 137.490101 
L 262.609087 109.8 
L 262.852841 101.827159 
L 264.2478 76.32 
L 261.59761 76.32 
L 260.04933 104.63067 
L 259.891288 109.8 
L 257.747435 140.412565 
L 257.634994 143.28 
L 254.88 173.381659 
L 254.397345 176.76 
L 254.255774 177.384226 
L 248.255251 210.24 
" clip-path="url(#p6388d363c3)" style="fill: #28ae80"/>
   </g>
   <g id="PathCollection_26">
    <path d="M 132.218172 210.24 
L 130.02515 201.17485 
L 125.723321 176.76 
L 124.973971 172.746029 
L 120.96 143.405403 
L 120.949084 143.290916 
L 120.948545 143.28 
L 118.699694 112.060306 
L 118.614507 109.8 
L 117.00546 80.27454 
L 116.89258 76.32 
L 114.24239 76.32 
L 114.42882 82.85118 
L 115.897448 109.8 
L 116.081316 114.678684 
L 118.141556 143.28 
L 118.274226 145.965774 
L 120.96 174.133466 
L 121.276083 176.443917 
L 121.335091 176.76 
L 126.294289 204.905711 
L 127.584749 210.24 
M 248.255251 210.24 
L 254.255774 177.384226 
L 254.397345 176.76 
L 254.88 173.381659 
L 257.634994 143.28 
L 257.747435 140.412565 
L 259.891288 109.8 
L 260.04933 104.63067 
L 261.59761 76.32 
L 258.94742 76.32 
L 257.24582 107.43418 
L 257.173489 109.8 
L 254.88 142.549251 
L 254.800925 143.28 
L 254.783711 143.376289 
L 250.014266 176.76 
L 248.587061 183.052939 
L 243.621828 210.24 
" clip-path="url(#p6388d363c3)" style="fill: #31b57b"/>
   </g>
   <g id="PathCollection_27">
    <path d="M 136.851596 210.24 
L 133.756012 197.443988 
L 130.11155 176.76 
L 128.671858 169.048142 
L 125.146625 143.28 
L 124.628954 139.611046 
L 121.516399 109.8 
L 121.462433 109.297567 
L 120.96 102.981873 
L 119.582101 77.697899 
L 119.542769 76.32 
L 116.89258 76.32 
L 117.00546 80.27454 
L 118.614507 109.8 
L 118.699694 112.060306 
L 120.948545 143.28 
L 120.949084 143.290916 
L 120.96 143.405403 
L 124.973971 172.746029 
L 125.723321 176.76 
L 130.02515 201.17485 
L 132.218172 210.24 
M 243.621828 210.24 
L 248.587061 183.052939 
L 250.014266 176.76 
L 254.783711 143.376289 
L 254.800925 143.28 
L 254.88 142.549251 
L 257.173489 109.8 
L 257.24582 107.43418 
L 258.94742 76.32 
L 256.297231 76.32 
L 254.88 102.234405 
L 254.245324 109.8 
L 254.144817 110.535183 
L 250.601475 143.28 
L 249.670058 148.489942 
L 245.631188 176.76 
L 242.918347 188.721653 
L 238.988404 210.24 
" clip-path="url(#p6388d363c3)" style="fill: #3aba76"/>
   </g>
   <g id="PathCollection_28">
    <path d="M 141.48502 210.24 
L 137.486873 193.713127 
L 134.499779 176.76 
L 132.369746 165.350254 
L 129.350405 143.28 
L 128.312942 135.927058 
L 125.585031 109.8 
L 125.136443 105.623557 
L 122.805254 76.32 
L 120.96 76.32 
L 119.542769 76.32 
L 119.582101 77.697899 
L 120.96 102.981873 
L 121.462433 109.297567 
L 121.516399 109.8 
L 124.628954 139.611046 
L 125.146625 143.28 
L 128.671858 169.048142 
L 130.11155 176.76 
L 133.756012 197.443988 
L 136.851596 210.24 
M 238.988404 210.24 
L 242.918347 188.721653 
L 245.631188 176.76 
L 249.670058 148.489942 
L 250.601475 143.28 
L 254.144817 110.535183 
L 254.245324 109.8 
L 254.88 102.234405 
L 256.297231 76.32 
L 254.88 76.32 
L 253.034746 76.32 
L 252.815519 78.384481 
L 250.180077 109.8 
L 249.4358 115.2442 
L 246.402025 143.28 
L 244.556405 153.603595 
L 241.248109 176.76 
L 237.249634 194.390366 
L 234.35498 210.24 
" clip-path="url(#p6388d363c3)" style="fill: #46c06f"/>
   </g>
   <g id="PathCollection_29">
    <path d="M 146.118443 210.24 
L 141.217735 189.982265 
L 138.888008 176.76 
L 136.067634 161.652366 
L 133.554185 143.28 
L 131.996931 132.243069 
L 129.653662 109.8 
L 128.810454 101.949546 
L 126.771543 76.32 
L 122.805254 76.32 
L 125.136443 105.623557 
L 125.585031 109.8 
L 128.312942 135.927058 
L 129.350405 143.28 
L 132.369746 165.350254 
L 134.499779 176.76 
L 137.486873 193.713127 
L 141.48502 210.24 
M 234.35498 210.24 
L 237.249634 194.390366 
L 241.248109 176.76 
L 244.556405 153.603595 
L 246.402025 143.28 
L 249.4358 115.2442 
L 250.180077 109.8 
L 252.815519 78.384481 
L 253.034746 76.32 
L 249.068457 76.32 
L 248.378011 82.821989 
L 246.114831 109.8 
L 244.726784 119.953216 
L 242.202575 143.28 
L 239.442752 158.717248 
L 236.86503 176.76 
L 231.580921 200.059079 
L 229.721557 210.24 
" clip-path="url(#p6388d363c3)" style="fill: #54c568"/>
   </g>
   <g id="PathCollection_30">
    <path d="M 150.751867 210.24 
L 144.948596 186.251404 
L 143.276237 176.76 
L 139.765521 157.954479 
L 137.757966 143.28 
L 135.680919 128.559081 
L 133.722294 109.8 
L 132.484464 98.275536 
L 130.737832 76.32 
L 126.771543 76.32 
L 128.810454 101.949546 
L 129.653662 109.8 
L 131.996931 132.243069 
L 133.554185 143.28 
L 136.067634 161.652366 
L 138.888008 176.76 
L 141.217735 189.982265 
L 146.118443 210.24 
M 229.721557 210.24 
L 231.580921 200.059079 
L 236.86503 176.76 
L 239.442752 158.717248 
L 242.202575 143.28 
L 244.726784 119.953216 
L 246.114831 109.8 
L 248.378011 82.821989 
L 249.068457 76.32 
L 245.102168 76.32 
L 243.940503 87.259497 
L 242.049585 109.8 
L 240.017768 124.662232 
L 238.003125 143.28 
L 234.329099 163.830901 
L 232.481952 176.76 
L 225.912207 205.727793 
L 225.088133 210.24 
" clip-path="url(#p6388d363c3)" style="fill: #60ca60"/>
   </g>
   <g id="PathCollection_31">
    <path d="M 157.13196 210.24 
L 155.985037 208.694963 
L 154.44 206.332515 
L 148.679457 182.520543 
L 147.664466 176.76 
L 143.463409 154.256591 
L 141.961746 143.28 
L 139.364907 124.875093 
L 137.790925 109.8 
L 136.158474 94.601526 
L 134.704121 76.32 
L 130.737832 76.32 
L 132.484464 98.275536 
L 133.722294 109.8 
L 135.680919 128.559081 
L 137.757966 143.28 
L 139.765521 157.954479 
L 143.276237 176.76 
L 144.948596 186.251404 
L 150.751867 210.24 
L 154.44 210.24 
M 225.088133 210.24 
L 225.912207 205.727793 
L 232.481952 176.76 
L 234.329099 163.830901 
L 238.003125 143.28 
L 240.017768 124.662232 
L 242.049585 109.8 
L 243.940503 87.259497 
L 245.102168 76.32 
L 241.135879 76.32 
L 239.502996 91.697004 
L 237.984339 109.8 
L 235.308752 129.371248 
L 233.803675 143.28 
L 229.215445 168.944555 
L 228.098873 176.76 
L 221.4 206.297156 
L 218.70804 210.24 
L 221.4 210.24 
" clip-path="url(#p6388d363c3)" style="fill: #70cf57"/>
   </g>
   <g id="PathCollection_32">
    <path d="M 170.326834 210.24 
L 163.558167 201.121833 
L 154.44 187.179639 
L 152.410319 178.789681 
L 152.052695 176.76 
L 147.161296 150.558704 
L 146.165527 143.28 
L 143.048896 121.191104 
L 141.859557 109.8 
L 139.832484 90.927516 
L 138.67041 76.32 
L 134.704121 76.32 
L 136.158474 94.601526 
L 137.790925 109.8 
L 139.364907 124.875093 
L 141.961746 143.28 
L 143.463409 154.256591 
L 147.664466 176.76 
L 148.679457 182.520543 
L 154.44 206.332515 
L 155.985037 208.694963 
L 157.13196 210.24 
M 218.70804 210.24 
L 221.4 206.297156 
L 228.098873 176.76 
L 229.215445 168.944555 
L 233.803675 143.28 
L 235.308752 129.371248 
L 237.984339 109.8 
L 239.502996 91.697004 
L 241.135879 76.32 
L 237.16959 76.32 
L 235.065488 96.134512 
L 233.919092 109.8 
L 230.599735 134.080265 
L 229.604225 143.28 
L 224.101792 174.058208 
L 223.715794 176.76 
L 221.4 186.970968 
L 205.513166 210.24 
" clip-path="url(#p6388d363c3)" style="fill: #7fd34e"/>
   </g>
   <g id="PathCollection_33">
    <path d="M 183.521709 210.24 
L 171.131298 193.548702 
L 160.15152 176.76 
L 158.061766 173.138234 
L 154.44 166.041839 
L 150.859184 146.860816 
L 150.369307 143.28 
L 146.732884 117.507116 
L 145.928188 109.8 
L 143.506494 87.253506 
L 142.6367 76.32 
L 138.67041 76.32 
L 139.832484 90.927516 
L 141.859557 109.8 
L 143.048896 121.191104 
L 146.165527 143.28 
L 147.161296 150.558704 
L 152.052695 176.76 
L 152.410319 178.789681 
L 154.44 187.179639 
L 163.558167 201.121833 
L 170.326834 210.24 
M 205.513166 210.24 
L 221.4 186.970968 
L 223.715794 176.76 
L 224.101792 174.058208 
L 229.604225 143.28 
L 230.599735 134.080265 
L 233.919092 109.8 
L 235.065488 96.134512 
L 237.16959 76.32 
L 233.2033 76.32 
L 230.62798 100.57202 
L 229.853846 109.8 
L 225.890719 138.789281 
L 225.404775 143.28 
L 221.4 165.680964 
L 215.526571 176.76 
L 201.78362 196.37638 
L 192.318291 210.24 
" clip-path="url(#p6388d363c3)" style="fill: #90d743"/>
   </g>
   <g id="PathCollection_34">
    <path d="M 192.318291 210.24 
L 201.78362 196.37638 
L 215.526571 176.76 
L 221.4 165.680964 
L 225.404775 143.28 
L 225.890719 138.789281 
L 229.853846 109.8 
L 230.62798 100.57202 
L 233.2033 76.32 
L 229.237011 76.32 
L 226.190472 105.009528 
L 225.7886 109.8 
L 221.4 141.901508 
L 220.846779 143.28 
L 220.171375 144.508625 
L 203.073663 176.76 
L 187.92 198.389999 
L 178.704428 185.975572 
L 172.677462 176.76 
L 166.004668 165.195332 
L 154.819804 143.28 
L 154.704442 143.015558 
L 154.44 142.336752 
L 150.416872 113.823128 
L 149.99682 109.8 
L 147.180504 83.579496 
L 146.602989 76.32 
L 142.6367 76.32 
L 143.506494 87.253506 
L 145.928188 109.8 
L 146.732884 117.507116 
L 150.369307 143.28 
L 150.859184 146.860816 
L 154.44 166.041839 
L 158.061766 173.138234 
L 160.15152 176.76 
L 171.131298 193.548702 
L 183.521709 210.24 
L 187.92 210.24 
" clip-path="url(#p6388d363c3)" style="fill: #a0da39"/>
   </g>
   <g id="PathCollection_35">
    <path d="M 225.270722 76.32 
L 221.752964 109.447036 
L 221.723354 109.8 
L 221.4 112.165251 
L 208.912934 143.28 
L 193.667988 171.012012 
L 190.620755 176.76 
L 187.92 180.614998 
L 186.277558 178.402442 
L 185.203405 176.76 
L 173.94757 157.25243 
L 166.816501 143.28 
L 163.057257 134.662743 
L 154.44 112.542763 
L 154.100861 110.139139 
L 154.065452 109.8 
L 150.854514 79.905486 
L 150.569278 76.32 
L 146.602989 76.32 
L 147.180504 83.579496 
L 149.99682 109.8 
L 150.416872 113.823128 
L 154.44 142.336752 
L 154.704442 143.015558 
L 154.819804 143.28 
L 166.004668 165.195332 
L 172.677462 176.76 
L 178.704428 185.975572 
L 187.92 198.389999 
L 203.073663 176.76 
L 220.171375 144.508625 
L 220.846779 143.28 
L 221.4 141.901508 
L 225.7886 109.8 
L 226.190472 105.009528 
L 229.237011 76.32 
" clip-path="url(#p6388d363c3)" style="fill: #b2dd2d"/>
   </g>
   <g id="PathCollection_36">
    <path d="M 221.127848 76.32 
L 220.996787 76.723213 
L 210.762564 109.8 
L 203.051849 128.148151 
L 196.979089 143.28 
L 187.92 159.759348 
L 181.890472 149.309528 
L 178.813199 143.28 
L 171.410072 126.309928 
L 164.978317 109.8 
L 162.339703 101.900297 
L 154.712152 76.32 
L 154.44 76.32 
L 150.569278 76.32 
L 150.854514 79.905486 
L 154.065452 109.8 
L 154.100861 110.139139 
L 154.44 112.542763 
L 163.057257 134.662743 
L 166.816501 143.28 
L 173.94757 157.25243 
L 185.203405 176.76 
L 186.277558 178.402442 
L 187.92 180.614998 
L 190.620755 176.76 
L 193.667988 171.012012 
L 208.912934 143.28 
L 221.4 112.165251 
L 221.723354 109.8 
L 221.752964 109.447036 
L 225.270722 76.32 
L 221.4 76.32 
" clip-path="url(#p6388d363c3)" style="fill: #c5e021"/>
   </g>
   <g id="PathCollection_37">
    <path d="M 209.832812 76.32 
L 204.262354 93.457646 
L 199.205899 109.8 
L 187.92 136.655535 
L 179.762887 117.957113 
L 176.585129 109.8 
L 171.040368 93.199632 
L 166.007188 76.32 
L 154.712152 76.32 
L 162.339703 101.900297 
L 164.978317 109.8 
L 171.410072 126.309928 
L 178.813199 143.28 
L 181.890472 149.309528 
L 187.92 159.759348 
L 196.979089 143.28 
L 203.051849 128.148151 
L 210.762564 109.8 
L 220.996787 76.723213 
L 221.127848 76.32 
" clip-path="url(#p6388d363c3)" style="fill: #d5e21a"/>
   </g>
   <g id="PathCollection_38">
    <path d="M 198.537776 76.32 
L 187.92 108.985839 
L 179.741034 84.498966 
L 177.302224 76.32 
L 166.007188 76.32 
L 171.040368 93.199632 
L 176.585129 109.8 
L 179.762887 117.957113 
L 187.92 136.655535 
L 199.205899 109.8 
L 204.262354 93.457646 
L 209.832812 76.32 
" clip-path="url(#p6388d363c3)" style="fill: #e7e419"/>
   </g>
   <g id="PathCollection_39">
    <path d="M 177.302224 76.32 
L 179.741034 84.498966 
L 187.92 108.985839 
L 198.537776 76.32 
L 187.92 76.32 
" clip-path="url(#p6388d363c3)" style="fill: #f6e620"/>
   </g>
   <g id="matplotlib.axis_1">
    <g id="xtick_1">
     <g id="line2d_2">
      <defs>
       <path id="m94176862a1" d="M 0 0 
L 0 3.5 
" style="stroke: #000000; stroke-width: 0.8"/>
      </defs>
      <g>
       <use xlink:href="#m94176862a1" x="54" y="210.24" style="stroke: #000000; stroke-width: 0.8"/>
      </g>
     </g>
     <g id="text_1">
      <!-- 0.0 -->
      <g transform="translate(46.048437 224.838437) scale(0.1 -0.1)">
       <defs>
        <path id="DejaVuSans-30" d="M 2034 4250 
Q 1547 4250 1301 3770 
Q 1056 3291 1056 2328 
Q 1056 1369 1301 889 
Q 1547 409 2034 409 
Q 2525 409 2770 889 
Q 3016 1369 3016 2328 
Q 3016 3291 2770 3770 
Q 2525 4250 2034 4250 
z
M 2034 4750 
Q 2819 4750 3233 4129 
Q 3647 3509 3647 2328 
Q 3647 1150 3233 529 
Q 2819 -91 2034 -91 
Q 1250 -91 836 529 
Q 422 1150 422 2328 
Q 422 3509 836 4129 
Q 1250 4750 2034 4750 
z
" transform="scale(0.015625)"/>
        <path id="DejaVuSans-2e" d="M 684 794 
L 1344 794 
L 1344 0 
L 684 0 
L 684 794 
z
" transform="scale(0.015625)"/>
       </defs>
       <use xlink:href="#DejaVuSans-30"/>
       <use xlink:href="#DejaVuSans-2e" x="63.623047"/>
       <use xlink:href="#DejaVuSans-30" x="95.410156"/>
      </g>
     </g>
    </g>
    <g id="xtick_2">
     <g id="line2d_3">
      <g>
       <use xlink:href="#m94176862a1" x="107.568" y="210.24" style="stroke: #000000; stroke-width: 0.8"/>
      </g>
     </g>
     <g id="text_2">
      <!-- 0.2 -->
      <g transform="translate(99.616438 224.838437) scale(0.1 -0.1)">
       <defs>
        <path id="DejaVuSans-32" d="M 1228 531 
L 3431 531 
L 3431 0 
L 469 0 
L 469 531 
Q 828 903 1448 1529 
Q 2069 2156 2228 2338 
Q 2531 2678 2651 2914 
Q 2772 3150 2772 3378 
Q 2772 3750 2511 3984 
Q 2250 4219 1831 4219 
Q 1534 4219 1204 4116 
Q 875 4013 500 3803 
L 500 4441 
Q 881 4594 1212 4672 
Q 1544 4750 1819 4750 
Q 2544 4750 2975 4387 
Q 3406 4025 3406 3419 
Q 3406 3131 3298 2873 
Q 3191 2616 2906 2266 
Q 2828 2175 2409 1742 
Q 1991 1309 1228 531 
z
" transform="scale(0.015625)"/>
       </defs>
       <use xlink:href="#DejaVuSans-30"/>
       <use xlink:href="#DejaVuSans-2e" x="63.623047"/>
       <use xlink:href="#DejaVuSans-32" x="95.410156"/>
      </g>
     </g>
    </g>
    <g id="xtick_3">
     <g id="line2d_4">
      <g>
       <use xlink:href="#m94176862a1" x="161.136" y="210.24" style="stroke: #000000; stroke-width: 0.8"/>
      </g>
     </g>
     <g id="text_3">
      <!-- 0.4 -->
      <g transform="translate(153.184438 224.838437) scale(0.1 -0.1)">
       <defs>
        <path id="DejaVuSans-34" d="M 2419 4116 
L 825 1625 
L 2419 1625 
L 2419 4116 
z
M 2253 4666 
L 3047 4666 
L 3047 1625 
L 3713 1625 
L 3713 1100 
L 3047 1100 
L 3047 0 
L 2419 0 
L 2419 1100 
L 313 1100 
L 313 1709 
L 2253 4666 
z
" transform="scale(0.015625)"/>
       </defs>
       <use xlink:href="#DejaVuSans-30"/>
       <use xlink:href="#DejaVuSans-2e" x="63.623047"/>
       <use xlink:href="#DejaVuSans-34" x="95.410156"/>
      </g>
     </g>
    </g>
    <g id="xtick_4">
     <g id="line2d_5">
      <g>
       <use xlink:href="#m94176862a1" x="214.704" y="210.24" style="stroke: #000000; stroke-width: 0.8"/>
      </g>
     </g>
     <g id="text_4">
      <!-- 0.6 -->
      <g transform="translate(206.752438 224.838437) scale(0.1 -0.1)">
       <defs>
        <path id="DejaVuSans-36" d="M 2113 2584 
Q 1688 2584 1439 2293 
Q 1191 2003 1191 1497 
Q 1191 994 1439 701 
Q 1688 409 2113 409 
Q 2538 409 2786 701 
Q 3034 994 3034 1497 
Q 3034 2003 2786 2293 
Q 2538 2584 2113 2584 
z
M 3366 4563 
L 3366 3988 
Q 3128 4100 2886 4159 
Q 2644 4219 2406 4219 
Q 1781 4219 1451 3797 
Q 1122 3375 1075 2522 
Q 1259 2794 1537 2939 
Q 1816 3084 2150 3084 
Q 2853 3084 3261 2657 
Q 3669 2231 3669 1497 
Q 3669 778 3244 343 
Q 2819 -91 2113 -91 
Q 1303 -91 875 529 
Q 447 1150 447 2328 
Q 447 3434 972 4092 
Q 1497 4750 2381 4750 
Q 2619 4750 2861 4703 
Q 3103 4656 3366 4563 
z
" transform="scale(0.015625)"/>
       </defs>
       <use xlink:href="#DejaVuSans-30"/>
       <use xlink:href="#DejaVuSans-2e" x="63.623047"/>
       <use xlink:href="#DejaVuSans-36" x="95.410156"/>
      </g>
     </g>
    </g>
    <g id="xtick_5">
     <g id="line2d_6">
      <g>
       <use xlink:href="#m94176862a1" x="268.272" y="210.24" style="stroke: #000000; stroke-width: 0.8"/>
      </g>
     </g>
     <g id="text_5">
      <!-- 0.8 -->
      <g transform="translate(260.320438 224.838437) scale(0.1 -0.1)">
       <defs>
        <path id="DejaVuSans-38" d="M 2034 2216 
Q 1584 2216 1326 1975 
Q 1069 1734 1069 1313 
Q 1069 891 1326 650 
Q 1584 409 2034 409 
Q 2484 409 2743 651 
Q 3003 894 3003 1313 
Q 3003 1734 2745 1975 
Q 2488 2216 2034 2216 
z
M 1403 2484 
Q 997 2584 770 2862 
Q 544 3141 544 3541 
Q 544 4100 942 4425 
Q 1341 4750 2034 4750 
Q 2731 4750 3128 4425 
Q 3525 4100 3525 3541 
Q 3525 3141 3298 2862 
Q 3072 2584 2669 2484 
Q 3125 2378 3379 2068 
Q 3634 1759 3634 1313 
Q 3634 634 3220 271 
Q 2806 -91 2034 -91 
Q 1263 -91 848 271 
Q 434 634 434 1313 
Q 434 1759 690 2068 
Q 947 2378 1403 2484 
z
M 1172 3481 
Q 1172 3119 1398 2916 
Q 1625 2713 2034 2713 
Q 2441 2713 2670 2916 
Q 2900 3119 2900 3481 
Q 2900 3844 2670 4047 
Q 2441 4250 2034 4250 
Q 1625 4250 1398 4047 
Q 1172 3844 1172 3481 
z
" transform="scale(0.015625)"/>
       </defs>
       <use xlink:href="#DejaVuSans-30"/>
       <use xlink:href="#DejaVuSans-2e" x="63.623047"/>
       <use xlink:href="#DejaVuSans-38" x="95.410156"/>
      </g>
     </g>
    </g>
    <g id="xtick_6">
     <g id="line2d_7">
      <g>
       <use xlink:href="#m94176862a1" x="321.84" y="210.24" style="stroke: #000000; stroke-width: 0.8"/>
      </g>
     </g>
     <g id="text_6">
      <!-- 1.0 -->
      <g transform="translate(313.888438 224.838437) scale(0.1 -0.1)">
       <defs>
        <path id="DejaVuSans-31" d="M 794 531 
L 1825 531 
L 1825 4091 
L 703 3866 
L 703 4441 
L 1819 4666 
L 2450 4666 
L 2450 531 
L 3481 531 
L 3481 0 
L 794 0 
L 794 531 
z
" transform="scale(0.015625)"/>
       </defs>
       <use xlink:href="#DejaVuSans-31"/>
       <use xlink:href="#DejaVuSans-2e" x="63.623047"/>
       <use xlink:href="#DejaVuSans-30" x="95.410156"/>
      </g>
     </g>
    </g>
    <g id="text_7">
     <!-- x -->
     <g transform="translate(184.960625 238.516563) scale(0.1 -0.1)">
      <defs>
       <path id="DejaVuSans-78" d="M 3513 3500 
L 2247 1797 
L 3578 0 
L 2900 0 
L 1881 1375 
L 863 0 
L 184 0 
L 1544 1831 
L 300 3500 
L 978 3500 
L 1906 2253 
L 2834 3500 
L 3513 3500 
z
" transform="scale(0.015625)"/>
      </defs>
      <use xlink:href="#DejaVuSans-78"/>
     </g>
    </g>
   </g>
   <g id="matplotlib.axis_2">
    <g id="ytick_1">
     <g id="line2d_8">
      <defs>
       <path id="md91a4aac35" d="M 0 0 
L -3.5 0 
" style="stroke: #000000; stroke-width: 0.8"/>
      </defs>
      <g>
       <use xlink:href="#md91a4aac35" x="54" y="210.24" style="stroke: #000000; stroke-width: 0.8"/>
      </g>
     </g>
     <g id="text_8">
      <!-- 0.0 -->
      <g transform="translate(31.096875 214.039219) scale(0.1 -0.1)">
       <use xlink:href="#DejaVuSans-30"/>
       <use xlink:href="#DejaVuSans-2e" x="63.623047"/>
       <use xlink:href="#DejaVuSans-30" x="95.410156"/>
      </g>
     </g>
    </g>
    <g id="ytick_2">
     <g id="line2d_9">
      <g>
       <use xlink:href="#md91a4aac35" x="54" y="183.456" style="stroke: #000000; stroke-width: 0.8"/>
      </g>
     </g>
     <g id="text_9">
      <!-- 0.1 -->
      <g transform="translate(31.096875 187.255219) scale(0.1 -0.1)">
       <use xlink:href="#DejaVuSans-30"/>
       <use xlink:href="#DejaVuSans-2e" x="63.623047"/>
       <use xlink:href="#DejaVuSans-31" x="95.410156"/>
      </g>
     </g>
    </g>
    <g id="ytick_3">
     <g id="line2d_10">
      <g>
       <use xlink:href="#md91a4aac35" x="54" y="156.672" style="stroke: #000000; stroke-width: 0.8"/>
      </g>
     </g>
     <g id="text_10">
      <!-- 0.2 -->
      <g transform="translate(31.096875 160.471219) scale(0.1 -0.1)">
       <use xlink:href="#DejaVuSans-30"/>
       <use xlink:href="#DejaVuSans-2e" x="63.623047"/>
       <use xlink:href="#DejaVuSans-32" x="95.410156"/>
      </g>
     </g>
    </g>
    <g id="ytick_4">
     <g id="line2d_11">
      <g>
       <use xlink:href="#md91a4aac35" x="54" y="129.888" style="stroke: #000000; stroke-width: 0.8"/>
      </g>
     </g>
     <g id="text_11">
      <!-- 0.3 -->
      <g transform="translate(31.096875 133.687219) scale(0.1 -0.1)">
       <defs>
        <path id="DejaVuSans-33" d="M 2597 2516 
Q 3050 2419 3304 2112 
Q 3559 1806 3559 1356 
Q 3559 666 3084 287 
Q 2609 -91 1734 -91 
Q 1441 -91 1130 -33 
Q 819 25 488 141 
L 488 750 
Q 750 597 1062 519 
Q 1375 441 1716 441 
Q 2309 441 2620 675 
Q 2931 909 2931 1356 
Q 2931 1769 2642 2001 
Q 2353 2234 1838 2234 
L 1294 2234 
L 1294 2753 
L 1863 2753 
Q 2328 2753 2575 2939 
Q 2822 3125 2822 3475 
Q 2822 3834 2567 4026 
Q 2313 4219 1838 4219 
Q 1578 4219 1281 4162 
Q 984 4106 628 3988 
L 628 4550 
Q 988 4650 1302 4700 
Q 1616 4750 1894 4750 
Q 2613 4750 3031 4423 
Q 3450 4097 3450 3541 
Q 3450 3153 3228 2886 
Q 3006 2619 2597 2516 
z
" transform="scale(0.015625)"/>
       </defs>
       <use xlink:href="#DejaVuSans-30"/>
       <use xlink:href="#DejaVuSans-2e" x="63.623047"/>
       <use xlink:href="#DejaVuSans-33" x="95.410156"/>
      </g>
     </g>
    </g>
    <g id="ytick_5">
     <g id="line2d_12">
      <g>
       <use xlink:href="#md91a4aac35" x="54" y="103.104" style="stroke: #000000; stroke-width: 0.8"/>
      </g>
     </g>
     <g id="text_12">
      <!-- 0.4 -->
      <g transform="translate(31.096875 106.903219) scale(0.1 -0.1)">
       <use xlink:href="#DejaVuSans-30"/>
       <use xlink:href="#DejaVuSans-2e" x="63.623047"/>
       <use xlink:href="#DejaVuSans-34" x="95.410156"/>
      </g>
     </g>
    </g>
    <g id="ytick_6">
     <g id="line2d_13">
      <g>
       <use xlink:href="#md91a4aac35" x="54" y="76.32" style="stroke: #000000; stroke-width: 0.8"/>
      </g>
     </g>
     <g id="text_13">
      <!-- 0.5 -->
      <g transform="translate(31.096875 80.119219) scale(0.1 -0.1)">
       <defs>
        <path id="DejaVuSans-35" d="M 691 4666 
L 3169 4666 
L 3169 4134 
L 1269 4134 
L 1269 2991 
Q 1406 3038 1543 3061 
Q 1681 3084 1819 3084 
Q 2600 3084 3056 2656 
Q 3513 2228 3513 1497 
Q 3513 744 3044 326 
Q 2575 -91 1722 -91 
Q 1428 -91 1123 -41 
Q 819 9 494 109 
L 494 744 
Q 775 591 1075 516 
Q 1375 441 1709 441 
Q 2250 441 2565 725 
Q 2881 1009 2881 1497 
Q 2881 1984 2565 2268 
Q 2250 2553 1709 2553 
Q 1456 2553 1204 2497 
Q 953 2441 691 2322 
L 691 4666 
z
" transform="scale(0.015625)"/>
       </defs>
       <use xlink:href="#DejaVuSans-30"/>
       <use xlink:href="#DejaVuSans-2e" x="63.623047"/>
       <use xlink:href="#DejaVuSans-35" x="95.410156"/>
      </g>
     </g>
    </g>
    <g id="text_14">
     <!-- t -->
     <g transform="translate(25.017187 145.240156) rotate(-90) scale(0.1 -0.1)">
      <defs>
       <path id="DejaVuSans-74" d="M 1172 4494 
L 1172 3500 
L 2356 3500 
L 2356 3053 
L 1172 3053 
L 1172 1153 
Q 1172 725 1289 603 
Q 1406 481 1766 481 
L 2356 481 
L 2356 0 
L 1766 0 
Q 1100 0 847 248 
Q 594 497 594 1153 
L 594 3053 
L 172 3053 
L 172 3500 
L 594 3500 
L 594 4494 
L 1172 4494 
z
" transform="scale(0.015625)"/>
      </defs>
      <use xlink:href="#DejaVuSans-74"/>
     </g>
    </g>
   </g>
   <g id="line2d_14"/>
   <g id="patch_3">
    <path d="M 54 210.24 
L 54 76.32 
" style="fill: none; stroke: #000000; stroke-width: 0.8; stroke-linejoin: miter; stroke-linecap: square"/>
   </g>
   <g id="patch_4">
    <path d="M 321.84 210.24 
L 321.84 76.32 
" style="fill: none; stroke: #000000; stroke-width: 0.8; stroke-linejoin: miter; stroke-linecap: square"/>
   </g>
   <g id="patch_5">
    <path d="M 54 210.24 
L 321.84 210.24 
" style="fill: none; stroke: #000000; stroke-width: 0.8; stroke-linejoin: miter; stroke-linecap: square"/>
   </g>
   <g id="patch_6">
    <path d="M 54 76.32 
L 321.84 76.32 
" style="fill: none; stroke: #000000; stroke-width: 0.8; stroke-linejoin: miter; stroke-linecap: square"/>
   </g>
  </g>
  <g id="axes_2">
   <g id="patch_7">
    <path d="M 338.58 252 
L 349.452 252 
L 349.452 34.56 
L 338.58 34.56 
z
" style="fill: #ffffff"/>
   </g>
   <g id="QuadMesh_1">
    <path d="M 338.58 252 
L 349.452 252 
L 349.452 246.424615 
L 338.58 246.424615 
L 338.58 252 
" clip-path="url(#p0ab7d789d3)" style="fill: #450559"/>
    <path d="M 338.58 246.424615 
L 349.452 246.424615 
L 349.452 240.849231 
L 338.58 240.849231 
L 338.58 246.424615 
" clip-path="url(#p0ab7d789d3)" style="fill: #470e61"/>
    <path d="M 338.58 240.849231 
L 349.452 240.849231 
L 349.452 235.273846 
L 338.58 235.273846 
L 338.58 240.849231 
" clip-path="url(#p0ab7d789d3)" style="fill: #48186a"/>
    <path d="M 338.58 235.273846 
L 349.452 235.273846 
L 349.452 229.698462 
L 338.58 229.698462 
L 338.58 235.273846 
" clip-path="url(#p0ab7d789d3)" style="fill: #482071"/>
    <path d="M 338.58 229.698462 
L 349.452 229.698462 
L 349.452 224.123077 
L 338.58 224.123077 
L 338.58 229.698462 
" clip-path="url(#p0ab7d789d3)" style="fill: #482979"/>
    <path d="M 338.58 224.123077 
L 349.452 224.123077 
L 349.452 218.547692 
L 338.58 218.547692 
L 338.58 224.123077 
" clip-path="url(#p0ab7d789d3)" style="fill: #46327e"/>
    <path d="M 338.58 218.547692 
L 349.452 218.547692 
L 349.452 212.972308 
L 338.58 212.972308 
L 338.58 218.547692 
" clip-path="url(#p0ab7d789d3)" style="fill: #443983"/>
    <path d="M 338.58 212.972308 
L 349.452 212.972308 
L 349.452 207.396923 
L 338.58 207.396923 
L 338.58 212.972308 
" clip-path="url(#p0ab7d789d3)" style="fill: #424186"/>
    <path d="M 338.58 207.396923 
L 349.452 207.396923 
L 349.452 201.821538 
L 338.58 201.821538 
L 338.58 207.396923 
" clip-path="url(#p0ab7d789d3)" style="fill: #3f4889"/>
    <path d="M 338.58 201.821538 
L 349.452 201.821538 
L 349.452 196.246154 
L 338.58 196.246154 
L 338.58 201.821538 
" clip-path="url(#p0ab7d789d3)" style="fill: #3c508b"/>
    <path d="M 338.58 196.246154 
L 349.452 196.246154 
L 349.452 190.670769 
L 338.58 190.670769 
L 338.58 196.246154 
" clip-path="url(#p0ab7d789d3)" style="fill: #39568c"/>
    <path d="M 338.58 190.670769 
L 349.452 190.670769 
L 349.452 185.095385 
L 338.58 185.095385 
L 338.58 190.670769 
" clip-path="url(#p0ab7d789d3)" style="fill: #355e8d"/>
    <path d="M 338.58 185.095385 
L 349.452 185.095385 
L 349.452 179.52 
L 338.58 179.52 
L 338.58 185.095385 
" clip-path="url(#p0ab7d789d3)" style="fill: #32658e"/>
    <path d="M 338.58 179.52 
L 349.452 179.52 
L 349.452 173.944615 
L 338.58 173.944615 
L 338.58 179.52 
" clip-path="url(#p0ab7d789d3)" style="fill: #2f6b8e"/>
    <path d="M 338.58 173.944615 
L 349.452 173.944615 
L 349.452 168.369231 
L 338.58 168.369231 
L 338.58 173.944615 
" clip-path="url(#p0ab7d789d3)" style="fill: #2c718e"/>
    <path d="M 338.58 168.369231 
L 349.452 168.369231 
L 349.452 162.793846 
L 338.58 162.793846 
L 338.58 168.369231 
" clip-path="url(#p0ab7d789d3)" style="fill: #2a778e"/>
    <path d="M 338.58 162.793846 
L 349.452 162.793846 
L 349.452 157.218462 
L 338.58 157.218462 
L 338.58 162.793846 
" clip-path="url(#p0ab7d789d3)" style="fill: #277e8e"/>
    <path d="M 338.58 157.218462 
L 349.452 157.218462 
L 349.452 151.643077 
L 338.58 151.643077 
L 338.58 157.218462 
" clip-path="url(#p0ab7d789d3)" style="fill: #25838e"/>
    <path d="M 338.58 151.643077 
L 349.452 151.643077 
L 349.452 146.067692 
L 338.58 146.067692 
L 338.58 151.643077 
" clip-path="url(#p0ab7d789d3)" style="fill: #238a8d"/>
    <path d="M 338.58 146.067692 
L 349.452 146.067692 
L 349.452 140.492308 
L 338.58 140.492308 
L 338.58 146.067692 
" clip-path="url(#p0ab7d789d3)" style="fill: #21918c"/>
    <path d="M 338.58 140.492308 
L 349.452 140.492308 
L 349.452 134.916923 
L 338.58 134.916923 
L 338.58 140.492308 
" clip-path="url(#p0ab7d789d3)" style="fill: #1f968b"/>
    <path d="M 338.58 134.916923 
L 349.452 134.916923 
L 349.452 129.341538 
L 338.58 129.341538 
L 338.58 134.916923 
" clip-path="url(#p0ab7d789d3)" style="fill: #1e9d89"/>
    <path d="M 338.58 129.341538 
L 349.452 129.341538 
L 349.452 123.766154 
L 338.58 123.766154 
L 338.58 129.341538 
" clip-path="url(#p0ab7d789d3)" style="fill: #1fa287"/>
    <path d="M 338.58 123.766154 
L 349.452 123.766154 
L 349.452 118.190769 
L 338.58 118.190769 
L 338.58 123.766154 
" clip-path="url(#p0ab7d789d3)" style="fill: #23a983"/>
    <path d="M 338.58 118.190769 
L 349.452 118.190769 
L 349.452 112.615385 
L 338.58 112.615385 
L 338.58 118.190769 
" clip-path="url(#p0ab7d789d3)" style="fill: #28ae80"/>
    <path d="M 338.58 112.615385 
L 349.452 112.615385 
L 349.452 107.04 
L 338.58 107.04 
L 338.58 112.615385 
" clip-path="url(#p0ab7d789d3)" style="fill: #31b57b"/>
    <path d="M 338.58 107.04 
L 349.452 107.04 
L 349.452 101.464615 
L 338.58 101.464615 
L 338.58 107.04 
" clip-path="url(#p0ab7d789d3)" style="fill: #3aba76"/>
    <path d="M 338.58 101.464615 
L 349.452 101.464615 
L 349.452 95.889231 
L 338.58 95.889231 
L 338.58 101.464615 
" clip-path="url(#p0ab7d789d3)" style="fill: #46c06f"/>
    <path d="M 338.58 95.889231 
L 349.452 95.889231 
L 349.452 90.313846 
L 338.58 90.313846 
L 338.58 95.889231 
" clip-path="url(#p0ab7d789d3)" style="fill: #54c568"/>
    <path d="M 338.58 90.313846 
L 349.452 90.313846 
L 349.452 84.738462 
L 338.58 84.738462 
L 338.58 90.313846 
" clip-path="url(#p0ab7d789d3)" style="fill: #60ca60"/>
    <path d="M 338.58 84.738462 
L 349.452 84.738462 
L 349.452 79.163077 
L 338.58 79.163077 
L 338.58 84.738462 
" clip-path="url(#p0ab7d789d3)" style="fill: #70cf57"/>
    <path d="M 338.58 79.163077 
L 349.452 79.163077 
L 349.452 73.587692 
L 338.58 73.587692 
L 338.58 79.163077 
" clip-path="url(#p0ab7d789d3)" style="fill: #7fd34e"/>
    <path d="M 338.58 73.587692 
L 349.452 73.587692 
L 349.452 68.012308 
L 338.58 68.012308 
L 338.58 73.587692 
" clip-path="url(#p0ab7d789d3)" style="fill: #90d743"/>
    <path d="M 338.58 68.012308 
L 349.452 68.012308 
L 349.452 62.436923 
L 338.58 62.436923 
L 338.58 68.012308 
" clip-path="url(#p0ab7d789d3)" style="fill: #a0da39"/>
    <path d="M 338.58 62.436923 
L 349.452 62.436923 
L 349.452 56.861538 
L 338.58 56.861538 
L 338.58 62.436923 
" clip-path="url(#p0ab7d789d3)" style="fill: #b2dd2d"/>
    <path d="M 338.58 56.861538 
L 349.452 56.861538 
L 349.452 51.286154 
L 338.58 51.286154 
L 338.58 56.861538 
" clip-path="url(#p0ab7d789d3)" style="fill: #c5e021"/>
    <path d="M 338.58 51.286154 
L 349.452 51.286154 
L 349.452 45.710769 
L 338.58 45.710769 
L 338.58 51.286154 
" clip-path="url(#p0ab7d789d3)" style="fill: #d5e21a"/>
    <path d="M 338.58 45.710769 
L 349.452 45.710769 
L 349.452 40.135385 
L 338.58 40.135385 
L 338.58 45.710769 
" clip-path="url(#p0ab7d789d3)" style="fill: #e7e419"/>
    <path d="M 338.58 40.135385 
L 349.452 40.135385 
L 349.452 34.56 
L 338.58 34.56 
L 338.58 40.135385 
" clip-path="url(#p0ab7d789d3)" style="fill: #f6e620"/>
   </g>
   <g id="matplotlib.axis_3"/>
   <g id="matplotlib.axis_4">
    <g id="ytick_7">
     <g id="line2d_15">
      <defs>
       <path id="mdfc469e351" d="M 0 0 
L 3.5 0 
" style="stroke: #000000; stroke-width: 0.8"/>
      </defs>
      <g>
       <use xlink:href="#mdfc469e351" x="349.452" y="252" style="stroke: #000000; stroke-width: 0.8"/>
      </g>
     </g>
     <g id="text_15">
      <!-- 0.00 -->
      <g transform="translate(356.452 255.799219) scale(0.1 -0.1)">
       <use xlink:href="#DejaVuSans-30"/>
       <use xlink:href="#DejaVuSans-2e" x="63.623047"/>
       <use xlink:href="#DejaVuSans-30" x="95.410156"/>
       <use xlink:href="#DejaVuSans-30" x="159.033203"/>
      </g>
     </g>
    </g>
    <g id="ytick_8">
     <g id="line2d_16">
      <g>
       <use xlink:href="#mdfc469e351" x="349.452" y="229.698462" style="stroke: #000000; stroke-width: 0.8"/>
      </g>
     </g>
     <g id="text_16">
      <!-- 0.12 -->
      <g transform="translate(356.452 233.49768) scale(0.1 -0.1)">
       <use xlink:href="#DejaVuSans-30"/>
       <use xlink:href="#DejaVuSans-2e" x="63.623047"/>
       <use xlink:href="#DejaVuSans-31" x="95.410156"/>
       <use xlink:href="#DejaVuSans-32" x="159.033203"/>
      </g>
     </g>
    </g>
    <g id="ytick_9">
     <g id="line2d_17">
      <g>
       <use xlink:href="#mdfc469e351" x="349.452" y="207.396923" style="stroke: #000000; stroke-width: 0.8"/>
      </g>
     </g>
     <g id="text_17">
      <!-- 0.24 -->
      <g transform="translate(356.452 211.196142) scale(0.1 -0.1)">
       <use xlink:href="#DejaVuSans-30"/>
       <use xlink:href="#DejaVuSans-2e" x="63.623047"/>
       <use xlink:href="#DejaVuSans-32" x="95.410156"/>
       <use xlink:href="#DejaVuSans-34" x="159.033203"/>
      </g>
     </g>
    </g>
    <g id="ytick_10">
     <g id="line2d_18">
      <g>
       <use xlink:href="#mdfc469e351" x="349.452" y="185.095385" style="stroke: #000000; stroke-width: 0.8"/>
      </g>
     </g>
     <g id="text_18">
      <!-- 0.36 -->
      <g transform="translate(356.452 188.894603) scale(0.1 -0.1)">
       <use xlink:href="#DejaVuSans-30"/>
       <use xlink:href="#DejaVuSans-2e" x="63.623047"/>
       <use xlink:href="#DejaVuSans-33" x="95.410156"/>
       <use xlink:href="#DejaVuSans-36" x="159.033203"/>
      </g>
     </g>
    </g>
    <g id="ytick_11">
     <g id="line2d_19">
      <g>
       <use xlink:href="#mdfc469e351" x="349.452" y="162.793846" style="stroke: #000000; stroke-width: 0.8"/>
      </g>
     </g>
     <g id="text_19">
      <!-- 0.48 -->
      <g transform="translate(356.452 166.593065) scale(0.1 -0.1)">
       <use xlink:href="#DejaVuSans-30"/>
       <use xlink:href="#DejaVuSans-2e" x="63.623047"/>
       <use xlink:href="#DejaVuSans-34" x="95.410156"/>
       <use xlink:href="#DejaVuSans-38" x="159.033203"/>
      </g>
     </g>
    </g>
    <g id="ytick_12">
     <g id="line2d_20">
      <g>
       <use xlink:href="#mdfc469e351" x="349.452" y="140.492308" style="stroke: #000000; stroke-width: 0.8"/>
      </g>
     </g>
     <g id="text_20">
      <!-- 0.60 -->
      <g transform="translate(356.452 144.291526) scale(0.1 -0.1)">
       <use xlink:href="#DejaVuSans-30"/>
       <use xlink:href="#DejaVuSans-2e" x="63.623047"/>
       <use xlink:href="#DejaVuSans-36" x="95.410156"/>
       <use xlink:href="#DejaVuSans-30" x="159.033203"/>
      </g>
     </g>
    </g>
    <g id="ytick_13">
     <g id="line2d_21">
      <g>
       <use xlink:href="#mdfc469e351" x="349.452" y="118.190769" style="stroke: #000000; stroke-width: 0.8"/>
      </g>
     </g>
     <g id="text_21">
      <!-- 0.72 -->
      <g transform="translate(356.452 121.989988) scale(0.1 -0.1)">
       <defs>
        <path id="DejaVuSans-37" d="M 525 4666 
L 3525 4666 
L 3525 4397 
L 1831 0 
L 1172 0 
L 2766 4134 
L 525 4134 
L 525 4666 
z
" transform="scale(0.015625)"/>
       </defs>
       <use xlink:href="#DejaVuSans-30"/>
       <use xlink:href="#DejaVuSans-2e" x="63.623047"/>
       <use xlink:href="#DejaVuSans-37" x="95.410156"/>
       <use xlink:href="#DejaVuSans-32" x="159.033203"/>
      </g>
     </g>
    </g>
    <g id="ytick_14">
     <g id="line2d_22">
      <g>
       <use xlink:href="#mdfc469e351" x="349.452" y="95.889231" style="stroke: #000000; stroke-width: 0.8"/>
      </g>
     </g>
     <g id="text_22">
      <!-- 0.84 -->
      <g transform="translate(356.452 99.68845) scale(0.1 -0.1)">
       <use xlink:href="#DejaVuSans-30"/>
       <use xlink:href="#DejaVuSans-2e" x="63.623047"/>
       <use xlink:href="#DejaVuSans-38" x="95.410156"/>
       <use xlink:href="#DejaVuSans-34" x="159.033203"/>
      </g>
     </g>
    </g>
    <g id="ytick_15">
     <g id="line2d_23">
      <g>
       <use xlink:href="#mdfc469e351" x="349.452" y="73.587692" style="stroke: #000000; stroke-width: 0.8"/>
      </g>
     </g>
     <g id="text_23">
      <!-- 0.96 -->
      <g transform="translate(356.452 77.386911) scale(0.1 -0.1)">
       <defs>
        <path id="DejaVuSans-39" d="M 703 97 
L 703 672 
Q 941 559 1184 500 
Q 1428 441 1663 441 
Q 2288 441 2617 861 
Q 2947 1281 2994 2138 
Q 2813 1869 2534 1725 
Q 2256 1581 1919 1581 
Q 1219 1581 811 2004 
Q 403 2428 403 3163 
Q 403 3881 828 4315 
Q 1253 4750 1959 4750 
Q 2769 4750 3195 4129 
Q 3622 3509 3622 2328 
Q 3622 1225 3098 567 
Q 2575 -91 1691 -91 
Q 1453 -91 1209 -44 
Q 966 3 703 97 
z
M 1959 2075 
Q 2384 2075 2632 2365 
Q 2881 2656 2881 3163 
Q 2881 3666 2632 3958 
Q 2384 4250 1959 4250 
Q 1534 4250 1286 3958 
Q 1038 3666 1038 3163 
Q 1038 2656 1286 2365 
Q 1534 2075 1959 2075 
z
" transform="scale(0.015625)"/>
       </defs>
       <use xlink:href="#DejaVuSans-30"/>
       <use xlink:href="#DejaVuSans-2e" x="63.623047"/>
       <use xlink:href="#DejaVuSans-39" x="95.410156"/>
       <use xlink:href="#DejaVuSans-36" x="159.033203"/>
      </g>
     </g>
    </g>
    <g id="ytick_16">
     <g id="line2d_24">
      <g>
       <use xlink:href="#mdfc469e351" x="349.452" y="51.286154" style="stroke: #000000; stroke-width: 0.8"/>
      </g>
     </g>
     <g id="text_24">
      <!-- 1.08 -->
      <g transform="translate(356.452 55.085373) scale(0.1 -0.1)">
       <use xlink:href="#DejaVuSans-31"/>
       <use xlink:href="#DejaVuSans-2e" x="63.623047"/>
       <use xlink:href="#DejaVuSans-30" x="95.410156"/>
       <use xlink:href="#DejaVuSans-38" x="159.033203"/>
      </g>
     </g>
    </g>
   </g>
   <g id="LineCollection_1"/>
   <g id="patch_8">
    <path d="M 338.58 252 
L 344.016 252 
L 349.452 252 
L 349.452 34.56 
L 344.016 34.56 
L 338.58 34.56 
L 338.58 252 
z
" style="fill: none; stroke: #000000; stroke-width: 0.8; stroke-linejoin: miter; stroke-linecap: square"/>
   </g>
  </g>
 </g>
 <defs>
  <clipPath id="p6388d363c3">
   <rect x="54" y="76.32" width="267.84" height="133.92"/>
  </clipPath>
  <clipPath id="p0ab7d789d3">
   <rect x="338.58" y="34.56" width="10.872" height="217.44"/>
  </clipPath>
 </defs>
</svg>
